<?xml version="1.0" encoding="UTF-8"?>
<svg version="1.1" xmlns="http://www.w3.org/2000/svg" width="225" height="225">
<path d="M0 0 C0.99 0.33 1.98 0.66 3 1 C3.02467467 6.65999023 3.04284788 12.31994932 3.05493164 17.97998047 C3.05996787 19.90641831 3.06679712 21.83285231 3.07543945 23.75927734 C3.08753608 26.52442368 3.09323533 29.28951958 3.09765625 32.0546875 C3.10281754 32.9193161 3.10797882 33.7839447 3.11329651 34.67477417 C3.11387171 40.77225659 3.11387171 40.77225659 2 43 C1.34 43 0.68 43 0 43 C-0.2371875 43.70125 -0.474375 44.4025 -0.71875 45.125 C-2.23569459 48.52887567 -4.18967301 51.07553545 -6.5 54 C-7.39587908 55.14449545 -8.29171097 56.28902783 -9.1875 57.43359375 C-9.64898437 58.01866699 -10.11046875 58.60374023 -10.5859375 59.20654297 C-12.90481333 62.14757575 -15.20488005 65.10291401 -17.5 68.0625 C-17.92087891 68.59810547 -18.34175781 69.13371094 -18.77539062 69.68554688 C-20.84120592 72.34642517 -22.63738479 74.91189923 -24 78 C-23.41516846 78.27545654 -22.83033691 78.55091309 -22.2277832 78.8347168 C-20.08414236 79.95598778 -18.27746238 81.18133775 -16.35546875 82.64453125 C-15.67806641 83.15693359 -15.00066406 83.66933594 -14.30273438 84.19726562 C-13.60470703 84.73029297 -12.90667969 85.26332031 -12.1875 85.8125 C-10.8065924 86.86147113 -9.42508661 87.90965527 -8.04296875 88.95703125 C-7.37257568 89.47837646 -6.70218262 89.99972168 -6.01147461 90.53686523 C-4.04826728 92.03116836 -4.04826728 92.03116836 -1.94360352 93.12133789 C0.09073691 94.27104807 1.50776173 95.1953742 3 97 C3.84320058 100.64255105 3.66443062 104.09931657 3.4375 107.8125 C3.40591797 108.79154297 3.37433594 109.77058594 3.34179688 110.77929688 C3.2595047 113.18928203 3.1446501 115.59308593 3 118 C2.01 118.33 1.02 118.66 0 119 C-2.48140118 117.37436016 -4.74599077 115.71362796 -7.0625 113.875 C-8.50780511 112.75741907 -9.95447076 111.64159588 -11.40234375 110.52734375 C-12.15628418 109.94452637 -12.91022461 109.36170898 -13.68701172 108.76123047 C-17.44009219 105.90343835 -21.28451368 103.17599818 -25.125 100.4375 C-31.31416363 96.00301669 -37.38171948 91.45143858 -43.32275391 86.68920898 C-46.09061316 84.47397102 -48.88627595 82.40383475 -51.83203125 80.4375 C-55 78 -55 78 -55.88476562 76.10717773 C-56.04870965 73.10929456 -54.93298278 72.11097431 -53.01171875 69.84765625 C-52.36122559 69.05891113 -51.71073242 68.27016602 -51.04052734 67.45751953 C-50.36715332 66.64653809 -49.6937793 65.83555664 -49 65 C-47.80886693 63.44391024 -46.627739 61.8801079 -45.45703125 60.30859375 C-44.56794067 59.12148804 -44.56794067 59.12148804 -43.66088867 57.91040039 C-43.05092041 57.09434326 -42.44095215 56.27828613 -41.8125 55.4375 C-41.16321533 54.5705249 -40.51393066 53.7035498 -39.8449707 52.81030273 C-37.32981567 49.45173135 -34.81641847 46.09184807 -32.30371094 42.73144531 C-30.7656012 40.6746597 -29.22686201 38.61834851 -27.6875 36.5625 C-26.95635986 35.58603516 -26.95635986 35.58603516 -26.21044922 34.58984375 C-23.15204692 30.51335215 -20.05729485 26.46713193 -16.9375 22.4375 C-12.69322451 16.94612409 -8.57185488 11.37251566 -4.48999023 5.75952148 C-1.09362221 1.09362221 -1.09362221 1.09362221 0 0 Z " fill="#000000" transform="translate(178,35)"/>
<path d="M0 0 C40.4039575 -2.66335395 40.4039575 -2.66335395 51.875 6.9375 C53.90315232 8.75817953 55.82585408 10.58930762 57.66357422 12.60131836 C58.96907789 14.12526144 58.96907789 14.12526144 61 15 C61 15.66 61 16.32 61 17 C61.57234375 17.2784375 62.1446875 17.556875 62.734375 17.84375 C64.96617566 18.98273792 67.10870874 20.19936383 69.25 21.5 C69.95640625 21.9228125 70.6628125 22.345625 71.390625 22.78125 C72.18726562 23.38453125 72.18726562 23.38453125 73 24 C73 24.66 73 25.32 73 26 C74.98 26.495 74.98 26.495 77 27 C77.27545654 26.41516846 77.55091309 25.83033691 77.8347168 25.2277832 C78.95598778 23.08414236 80.18133775 21.27746238 81.64453125 19.35546875 C82.15693359 18.67806641 82.66933594 18.00066406 83.19726562 17.30273438 C83.73029297 16.60470703 84.26332031 15.90667969 84.8125 15.1875 C85.86147113 13.8065924 86.90965527 12.42508661 87.95703125 11.04296875 C88.47837646 10.37257568 88.99972168 9.70218262 89.53686523 9.01147461 C91.03116836 7.04826728 91.03116836 7.04826728 92.12133789 4.94360352 C93.27104807 2.90926309 94.1953742 1.49223827 96 0 C99.64255105 -0.84320058 103.09931657 -0.66443062 106.8125 -0.4375 C107.79154297 -0.40591797 108.77058594 -0.37433594 109.77929688 -0.34179688 C112.18928203 -0.2595047 114.59308593 -0.1446501 117 0 C117.61035156 1.83618164 117.61035156 1.83618164 118 4 C116.234375 6.62109375 116.234375 6.62109375 113.75 9.4375 C111.3522103 12.18274012 109.175207 14.70157499 107.328125 17.84765625 C106.67070312 18.91306641 106.67070312 18.91306641 106 20 C105.34 20 104.68 20 104 20 C103.72800781 20.57363281 103.45601563 21.14726563 103.17578125 21.73828125 C98.84391065 30.07101572 92.4307945 37.43557574 86.70776367 44.84643555 C86.17256104 45.540354 85.6373584 46.23427246 85.0859375 46.94921875 C84.56483398 47.62388184 84.04373047 48.29854492 83.50683594 48.99365234 C82.04095963 50.94546238 80.6636695 52.94035838 79.2890625 54.95703125 C77 58 77 58 74 59 C71.96875 57.83984375 71.96875 57.83984375 69.5 55.9375 C68.03433594 54.82761719 68.03433594 54.82761719 66.5390625 53.6953125 C65.98379883 53.27024414 65.42853516 52.84517578 64.85644531 52.40722656 C62.03040242 50.26502361 59.16262485 48.18063922 56.30004883 46.08764648 C48.53486883 40.40350033 40.84647131 34.6267961 33.21557617 28.76391602 C26.47346567 23.58503311 19.67412466 18.484476 12.86474609 13.39453125 C9.90740837 11.18291655 6.95379263 8.96634583 4 6.75 C3.030625 6.02296875 2.06125 5.2959375 1.0625 4.546875 C0.381875 4.03640625 -0.29875 3.5259375 -1 3 C-0.67 2.01 -0.34 1.02 0 0 Z " fill="#000000" transform="translate(36,44)"/>
<path d="M0 0 C5.66010609 3.70523934 11.17694136 7.53175358 16.5625 11.625 C17.95958566 12.67975341 19.35672254 13.73443898 20.75390625 14.7890625 C21.45789551 15.32176758 22.16188477 15.85447266 22.88720703 16.40332031 C26.2508403 18.9452849 29.62576744 21.47213294 33 24 C34.31255876 24.98429665 35.62505843 25.9686721 36.9375 26.953125 C37.59492187 27.44619141 38.25234375 27.93925781 38.9296875 28.44726562 C47.96484375 35.22363281 47.96484375 35.22363281 57 42 C56.14488953 46.05491342 54.41472461 48.30653543 51.8125 51.5625 C50.89259593 52.72894508 49.97474558 53.89701177 49.05859375 55.06640625 C48.56343262 55.69820801 48.06827148 56.33000977 47.55810547 56.98095703 C44.76243695 60.60367384 42.07538212 64.30604507 39.375 68 C33.60371072 75.87507375 27.71329321 83.65249498 21.7800293 91.40600586 C16.8172038 97.90119121 11.94483077 104.45609146 7.13671875 111.06640625 C6.43160156 112.03449219 5.72648437 113.00257813 5 114 C4.17435547 115.18916016 4.17435547 115.18916016 3.33203125 116.40234375 C2.89246094 116.92957031 2.45289063 117.45679688 2 118 C1.34 118 0.68 118 0 118 C-0.30103361 112.59683268 -0.51631881 107.19872755 -0.65917969 101.7890625 C-0.71882197 99.95746724 -0.80018006 98.12642516 -0.90527344 96.296875 C-1.64078647 83.14417143 0.16559289 75.37368701 8.93554688 65.37255859 C9.73182495 64.5007193 9.73182495 64.5007193 10.54418945 63.61126709 C12.41155783 61.54449458 14.07238279 59.35270307 15.7265625 57.11328125 C17.19467067 55.187108 18.66384012 53.26222751 20.14453125 51.34570312 C20.86576172 50.3953418 20.86576172 50.3953418 21.6015625 49.42578125 C22.01744629 48.88348877 22.43333008 48.34119629 22.86181641 47.7824707 C24.24048647 45.6233823 25.10896224 43.39597545 26 41 C22.97980897 38.7699621 19.95872992 36.54113018 16.9375 34.3125 C16.08994141 33.68666016 15.24238281 33.06082031 14.36914062 32.41601562 C13.53447266 31.80048828 12.69980469 31.18496094 11.83984375 30.55078125 C10.61092407 29.62519409 10.61092407 29.62519409 9.35717773 28.6809082 C7.08961201 26.99134788 7.08961201 26.99134788 4.83227539 25.82495117 C2.8026311 24.69216834 1.4459699 23.82575408 0 22 C-0.83879719 18.19139708 -0.66312658 14.56282253 -0.4375 10.6875 C-0.40591797 9.66076172 -0.37433594 8.63402344 -0.34179688 7.57617188 C-0.25947936 5.04784816 -0.14459011 2.5254014 0 0 Z " fill="#000000" transform="translate(45,71)"/>
<path d="M0 0 C4.05491342 0.85511047 6.30653543 2.58527539 9.5625 5.1875 C10.7184959 6.09963196 11.87615213 7.00966226 13.03515625 7.91796875 C13.66566895 8.41216309 14.29618164 8.90635742 14.94580078 9.41552734 C18.74562363 12.34645797 22.62749023 15.16625936 26.5 18 C32.91718741 22.70602138 39.25884695 27.48602873 45.546875 32.36328125 C50.66913198 36.30359746 55.89785092 40.10314662 61.11523438 43.91601562 C73.01981576 52.63528988 73.01981576 52.63528988 77 56 C77 56.33 77 56.66 77 57 C71.38095665 57.22459281 65.76459222 57.38675647 60.14208984 57.49438477 C58.23505078 57.53929983 56.32831547 57.60045921 54.42236328 57.67895508 C43.11222902 58.13266524 35.27191986 58.32278465 26.55371094 50.44799805 C25.28962402 49.23623901 25.28962402 49.23623901 24 48 C22.29105955 46.69444454 20.56241219 45.41416644 18.8125 44.1640625 C18.01199219 43.57496094 17.21148437 42.98585937 16.38671875 42.37890625 C15.59910156 41.80011719 14.81148437 41.22132813 14 40.625 C12.37488842 39.4298392 10.74988442 38.23453211 9.125 37.0390625 C8.42632812 36.52553223 7.72765625 36.01200195 7.0078125 35.48291016 C4.99777291 33.99835513 2.99717718 32.50180112 1 31 C-3.3552004 32.51832675 -5.27904092 35.84677537 -7.75 39.5 C-8.19625732 40.12277832 -8.64251465 40.74555664 -9.10229492 41.38720703 C-11.15547426 44.25304954 -13.01952404 47.03634267 -14.69140625 50.1484375 C-16.59737285 53.35413554 -17.79803849 55.0336502 -21 57 C-27.92278281 58.190713 -35.03908399 57.61342129 -42 57 C-37.88642588 50.12064396 -33.39139169 43.79507729 -28.39892578 37.54199219 C-24.87464262 33.12622369 -21.44268869 28.65198911 -18.0625 24.125 C-17.57273682 23.46927002 -17.08297363 22.81354004 -16.57836914 22.13793945 C-15.57478419 20.79311269 -14.57161518 19.44797545 -13.56884766 18.10253906 C-10.80327119 14.39616737 -8.02586349 10.69866954 -5.25 7 C-4.23432521 5.64587068 -3.21869541 4.29170761 -2.203125 2.9375 C-1.47609375 1.968125 -0.7490625 0.99875 0 0 Z " fill="#000000" transform="translate(113,123)"/>
</svg>
