<svg id="svg" version="1.1" width="400" height="400" viewBox="0 0 400 400" xmlns="http://www.w3.org/2000/svg" xmlns:xlink="http://www.w3.org/1999/xlink"><g id="svgg"><path id="path0" d="M314.937 58.641 C 313.724 59.239,309.064 64.395,307.400 66.979 C 305.862 69.367,296.223 82.311,292.106 87.515 C 290.838 89.119,288.874 91.792,287.742 93.455 C 286.610 95.119,285.056 97.137,284.289 97.940 C 283.522 98.743,282.663 99.850,282.381 100.400 C 281.777 101.576,273.656 112.335,271.755 114.476 C 271.035 115.288,270.139 116.544,269.766 117.266 C 269.392 117.989,267.987 119.952,266.643 121.629 C 264.282 124.575,261.568 128.204,256.661 134.973 C 255.375 136.748,253.908 138.650,253.403 139.200 C 252.897 139.750,251.452 141.730,250.190 143.600 C 248.929 145.470,247.335 147.640,246.649 148.423 C 245.962 149.206,244.841 150.646,244.157 151.623 C 243.473 152.600,240.593 156.462,237.757 160.204 C 234.921 163.946,232.304 167.465,231.943 168.024 C 231.581 168.584,230.575 169.803,229.707 170.734 C 228.839 171.665,227.749 173.186,227.285 174.113 C 226.822 175.041,225.668 176.718,224.721 177.841 C 221.817 181.284,221.164 182.127,219.793 184.200 C 219.065 185.300,217.579 187.243,216.490 188.518 C 210.926 195.031,212.199 201.265,220.282 207.085 C 222.356 208.578,225.436 210.888,227.126 212.218 C 228.817 213.548,231.758 215.761,233.663 217.137 C 235.567 218.513,237.630 220.107,238.246 220.678 C 238.863 221.250,240.302 222.315,241.445 223.046 C 242.588 223.777,244.321 225.056,245.297 225.887 C 246.273 226.719,249.007 228.840,251.372 230.600 C 253.738 232.360,257.142 234.922,258.937 236.294 C 260.732 237.666,263.100 239.399,264.200 240.145 C 266.457 241.675,273.587 246.958,277.800 250.221 C 279.340 251.414,282.220 253.575,284.200 255.023 C 286.180 256.472,287.982 257.890,288.205 258.175 C 288.428 258.460,289.958 259.563,291.605 260.627 C 293.252 261.690,294.918 262.962,295.307 263.452 C 295.695 263.942,296.685 264.748,297.507 265.244 C 299.042 266.170,305.922 271.209,307.466 272.539 C 316.396 280.229,323.022 280.272,325.523 272.656 C 326.507 269.657,326.877 241.823,325.994 237.169 C 325.191 232.932,322.520 229.634,317.800 227.053 C 317.140 226.692,315.160 225.225,313.400 223.794 C 311.640 222.362,309.236 220.545,308.057 219.756 C 306.879 218.967,305.259 217.731,304.457 217.011 C 303.656 216.290,302.386 215.329,301.636 214.876 C 300.886 214.422,298.726 212.785,296.836 211.237 C 292.202 207.442,287.668 204.034,283.744 201.396 C 280.272 199.062,279.679 198.295,280.490 197.184 C 282.546 194.366,285.358 190.638,287.331 188.115 C 288.613 186.475,290.143 184.358,290.731 183.410 C 291.319 182.462,292.700 180.607,293.800 179.288 C 294.900 177.970,296.845 175.476,298.121 173.746 C 299.398 172.015,301.018 169.860,301.721 168.955 C 302.425 168.050,304.530 165.190,306.400 162.600 C 308.270 160.010,310.354 157.241,311.031 156.446 C 311.708 155.651,313.471 153.290,314.949 151.200 C 317.897 147.031,319.691 144.656,321.771 142.170 C 326.524 136.487,326.400 137.629,326.400 99.689 C 326.400 64.001,326.469 65.193,324.139 60.682 C 322.845 58.178,318.038 57.112,314.937 58.641 M66.400 73.992 C 59.763 74.760,56.806 78.522,58.471 84.078 C 59.098 86.172,60.789 87.827,67.212 92.630 C 70.175 94.847,74.733 98.267,77.339 100.230 C 79.946 102.194,83.501 104.804,85.240 106.031 C 86.979 107.258,88.806 108.623,89.301 109.066 C 89.795 109.508,91.640 110.873,93.400 112.100 C 95.160 113.328,97.230 114.992,98.000 115.800 C 98.770 116.607,99.940 117.551,100.600 117.896 C 101.260 118.241,103.150 119.550,104.800 120.803 C 111.224 125.685,115.738 129.042,117.164 130.000 C 117.983 130.550,119.901 132.001,121.426 133.225 C 124.393 135.604,128.135 138.411,131.791 141.000 C 133.033 141.880,135.344 143.658,136.925 144.951 C 138.506 146.244,141.600 148.516,143.800 149.999 C 146.000 151.483,148.141 153.078,148.559 153.545 C 148.976 154.011,150.146 154.873,151.159 155.460 C 152.171 156.047,154.013 157.354,155.251 158.364 C 158.334 160.877,162.607 164.141,166.690 167.098 C 167.675 167.812,169.588 169.267,170.941 170.333 C 172.293 171.398,174.165 172.692,175.100 173.208 C 176.035 173.725,176.800 174.254,176.800 174.384 C 176.800 174.515,178.285 175.748,180.100 177.125 C 181.915 178.502,184.627 180.567,186.127 181.714 C 194.677 188.253,201.138 188.528,205.198 182.527 C 206.975 179.899,209.851 176.096,213.300 171.812 C 214.785 169.967,216.000 168.341,216.000 168.199 C 216.000 168.056,216.855 166.821,217.900 165.454 C 218.945 164.087,220.520 162.024,221.400 160.869 C 222.280 159.715,223.760 157.832,224.690 156.685 C 225.619 155.538,227.239 153.363,228.290 151.851 C 229.340 150.339,231.595 147.279,233.301 145.051 C 239.336 137.167,240.395 135.762,242.993 132.200 C 244.436 130.220,246.273 127.610,247.074 126.400 C 247.875 125.190,249.408 123.233,250.480 122.052 C 251.552 120.870,252.720 119.340,253.074 118.652 C 253.429 117.963,254.038 117.175,254.427 116.900 C 254.816 116.625,255.545 115.725,256.046 114.900 C 256.547 114.075,257.687 112.467,258.579 111.327 C 259.470 110.187,261.010 108.148,262.000 106.795 C 265.742 101.683,273.954 90.775,275.547 88.800 C 279.214 84.255,279.336 78.450,275.815 76.058 C 272.702 73.944,272.021 73.859,256.800 73.688 C 234.288 73.436,233.312 73.666,228.400 80.374 C 227.410 81.726,225.322 84.500,223.760 86.539 C 222.198 88.578,220.588 90.776,220.182 91.423 C 219.776 92.070,218.697 93.500,217.784 94.600 C 216.871 95.700,215.631 97.386,215.028 98.346 C 214.425 99.306,212.822 101.437,211.466 103.081 C 210.110 104.726,208.550 106.749,208.000 107.578 C 207.450 108.407,206.259 109.966,205.353 111.043 C 204.448 112.119,203.071 113.990,202.293 115.200 C 201.516 116.410,200.232 118.019,199.442 118.777 L 198.004 120.153 196.902 119.131 C 196.296 118.569,194.360 117.155,192.600 115.989 C 190.840 114.824,188.410 113.025,187.200 111.991 C 185.990 110.957,184.460 109.833,183.800 109.494 C 183.140 109.154,181.581 108.004,180.335 106.938 C 177.051 104.129,175.305 102.759,172.600 100.869 C 171.280 99.946,168.670 98.037,166.800 96.626 C 164.930 95.215,161.870 92.967,160.000 91.631 C 156.165 88.890,152.957 86.482,148.000 82.622 C 141.720 77.732,138.614 75.613,136.400 74.708 L 134.200 73.810 101.600 73.750 C 83.670 73.717,67.830 73.826,66.400 73.992 M79.057 122.811 C 75.384 123.912,75.198 125.023,75.210 145.773 C 75.222 167.483,75.010 166.523,80.635 170.357 C 82.376 171.543,85.481 173.883,87.536 175.557 C 89.590 177.231,92.200 179.231,93.336 180.002 C 94.471 180.773,97.200 182.767,99.400 184.433 C 101.600 186.099,104.390 188.122,105.600 188.928 C 106.810 189.735,108.737 191.161,109.881 192.097 C 112.185 193.982,117.666 198.141,120.300 200.003 C 122.490 201.551,122.572 201.261,118.500 206.372 C 114.391 211.529,112.493 214.085,108.334 220.067 C 106.647 222.492,104.871 224.899,104.386 225.415 C 103.901 225.931,102.761 227.421,101.852 228.725 C 100.943 230.030,98.715 232.929,96.900 235.169 C 95.085 237.409,93.600 239.399,93.600 239.592 C 93.600 239.785,93.374 240.181,93.098 240.471 C 91.604 242.046,88.999 245.453,86.615 248.953 C 85.135 251.127,83.409 253.471,82.781 254.161 C 82.152 254.852,80.912 256.493,80.024 257.808 C 79.136 259.124,77.867 260.902,77.204 261.761 C 75.162 264.403,75.180 264.034,75.294 301.467 C 75.410 339.765,75.298 337.964,77.674 339.723 C 80.987 342.174,89.600 338.771,89.600 335.012 C 89.600 334.870,90.692 333.459,92.026 331.877 C 93.360 330.295,95.260 327.830,96.247 326.400 C 99.789 321.271,100.882 319.781,102.039 318.504 C 102.684 317.791,103.887 316.164,104.711 314.890 C 105.535 313.615,106.627 312.128,107.138 311.586 C 107.650 311.044,108.348 310.065,108.690 309.411 C 109.032 308.757,110.809 306.376,112.638 304.118 C 114.467 301.861,116.175 299.606,116.432 299.107 C 116.690 298.608,117.748 297.210,118.783 296.000 C 119.817 294.790,121.002 293.260,121.414 292.600 C 121.826 291.940,122.765 290.715,123.501 289.877 C 124.237 289.040,125.485 287.330,126.274 286.077 C 127.063 284.825,128.543 282.810,129.562 281.600 C 130.581 280.390,131.880 278.680,132.448 277.800 C 133.017 276.920,134.407 275.120,135.537 273.800 C 136.668 272.480,137.600 271.220,137.610 271.000 C 137.619 270.780,138.520 269.520,139.613 268.200 C 140.706 266.880,142.071 265.080,142.647 264.200 C 143.222 263.320,144.284 261.970,145.005 261.200 C 145.727 260.430,147.011 258.740,147.859 257.443 C 151.189 252.351,152.296 250.813,154.800 247.794 C 156.230 246.070,158.210 243.546,159.200 242.186 C 160.190 240.825,161.810 238.596,162.800 237.232 C 163.790 235.869,165.510 233.639,166.623 232.277 C 167.735 230.914,169.677 228.231,170.939 226.313 C 172.201 224.396,174.711 221.019,176.516 218.809 C 178.322 216.600,180.610 213.697,181.600 212.359 C 182.590 211.020,183.895 209.267,184.500 208.463 C 187.824 204.041,185.310 196.780,179.400 193.730 C 178.740 193.389,177.390 192.438,176.400 191.617 C 175.410 190.795,174.060 189.835,173.400 189.484 C 172.740 189.132,170.842 187.695,169.183 186.290 C 167.523 184.885,165.065 183.005,163.720 182.111 C 162.375 181.218,160.672 179.945,159.937 179.282 C 159.202 178.619,156.694 176.755,154.365 175.139 C 148.764 171.252,145.102 168.547,142.847 166.631 C 141.831 165.768,140.229 164.571,139.287 163.972 C 137.385 162.762,135.046 160.938,132.610 158.763 C 131.724 157.972,129.920 156.609,128.600 155.733 C 124.531 153.034,123.277 152.138,121.304 150.519 C 120.257 149.660,118.179 148.066,116.686 146.978 C 105.407 138.756,98.580 133.583,95.867 131.200 C 95.241 130.650,94.043 129.750,93.204 129.200 C 92.366 128.650,90.177 127.138,88.340 125.840 C 83.996 122.771,81.696 122.020,79.057 122.811 M200.306 214.458 C 199.466 214.693,198.360 215.429,197.781 216.138 C 190.128 225.511,189.223 226.690,186.902 230.325 C 186.296 231.274,184.675 233.399,183.300 235.047 C 181.925 236.696,180.800 238.199,180.800 238.387 C 180.800 238.576,179.924 239.781,178.854 241.065 C 177.784 242.349,176.237 244.454,175.415 245.743 C 174.593 247.031,173.332 248.741,172.613 249.543 C 171.893 250.344,170.664 251.990,169.880 253.200 C 169.097 254.410,167.972 255.940,167.380 256.600 C 166.788 257.260,165.837 258.520,165.265 259.400 C 164.694 260.280,163.392 261.990,162.372 263.200 C 161.352 264.410,160.046 266.120,159.469 267.000 C 158.892 267.880,157.340 269.860,156.020 271.400 C 154.701 272.940,153.131 275.010,152.532 276.000 C 151.934 276.990,150.879 278.520,150.189 279.400 C 149.499 280.280,148.550 281.642,148.080 282.426 C 147.610 283.211,146.838 284.201,146.364 284.626 C 145.890 285.052,144.772 286.473,143.879 287.785 C 142.986 289.097,141.793 290.686,141.227 291.316 C 140.662 291.946,139.390 293.596,138.400 294.982 C 136.434 297.734,133.607 301.566,130.800 305.283 C 123.546 314.891,123.045 315.832,123.275 319.442 C 123.463 322.395,124.330 323.613,126.761 324.341 C 128.827 324.960,162.343 324.978,164.565 324.361 C 166.499 323.824,171.600 318.746,171.600 317.358 C 171.600 317.195,172.470 316.058,173.534 314.831 C 174.597 313.604,175.992 311.790,176.634 310.800 C 177.275 309.810,178.835 307.757,180.100 306.238 C 181.365 304.719,182.402 303.279,182.404 303.038 C 182.406 302.797,183.332 301.520,184.461 300.200 C 185.591 298.880,186.967 297.080,187.519 296.200 C 188.071 295.320,189.318 293.711,190.290 292.625 C 191.262 291.539,192.335 290.099,192.676 289.425 C 193.016 288.751,194.146 287.210,195.186 286.000 C 196.227 284.790,197.403 283.170,197.801 282.400 C 198.722 280.616,200.869 278.017,201.430 278.007 C 201.858 278.000,204.606 279.977,208.800 283.310 C 210.010 284.271,211.900 285.661,213.000 286.397 C 214.100 287.134,215.643 288.306,216.429 289.003 C 217.214 289.699,219.104 291.104,220.629 292.126 C 223.170 293.829,225.168 295.312,230.550 299.487 C 231.622 300.319,233.598 301.764,234.940 302.697 C 236.282 303.631,237.925 304.901,238.590 305.521 C 239.256 306.140,240.700 307.253,241.800 307.993 C 242.900 308.734,244.970 310.359,246.400 311.605 C 247.830 312.850,250.170 314.649,251.600 315.601 C 256.864 319.107,258.648 320.380,260.757 322.137 C 262.004 323.176,263.639 324.116,264.634 324.367 C 266.908 324.940,335.175 324.969,337.230 324.398 C 341.849 323.115,342.116 315.362,337.635 312.600 C 336.921 312.160,335.108 310.810,333.606 309.600 C 329.964 306.665,326.074 303.855,324.600 303.092 C 323.940 302.751,322.864 301.908,322.209 301.219 C 321.555 300.531,320.115 299.393,319.009 298.691 C 317.904 297.988,315.693 296.331,314.095 295.007 C 311.122 292.545,309.065 291.016,304.940 288.205 C 303.653 287.328,301.610 285.778,300.400 284.761 C 299.190 283.744,297.660 282.626,297.000 282.278 C 296.340 281.930,294.450 280.470,292.800 279.035 C 291.150 277.600,288.990 275.932,288.000 275.328 C 285.301 273.682,280.528 270.133,277.600 267.596 C 276.170 266.357,273.380 264.279,271.400 262.980 C 269.420 261.680,266.296 259.353,264.457 257.808 C 260.701 254.652,258.010 252.669,254.846 250.724 C 253.662 249.996,251.952 248.755,251.046 247.967 C 250.141 247.179,248.500 245.934,247.400 245.201 C 246.300 244.467,244.140 242.760,242.600 241.407 C 241.060 240.055,238.090 237.805,236.000 236.408 C 233.910 235.010,231.030 232.933,229.600 231.791 C 228.170 230.649,226.010 229.056,224.800 228.250 C 223.590 227.445,220.800 225.351,218.600 223.598 C 216.400 221.845,213.417 219.610,211.971 218.632 C 210.525 217.654,209.098 216.559,208.800 216.200 C 207.402 214.515,203.186 213.651,200.306 214.458 " stroke="none" fill="#040404" fill-rule="evenodd"></path><path id="path1" d="" stroke="none" fill="#080404" fill-rule="evenodd"></path><path id="path2" d="" stroke="none" fill="#080404" fill-rule="evenodd"></path><path id="path3" d="" stroke="none" fill="#080404" fill-rule="evenodd"></path><path id="path4" d="" stroke="none" fill="#080404" fill-rule="evenodd"></path></g></svg>