<svg id="svg" version="1.1" width="400" height="400" viewBox="0 0 400 400" xmlns="http://www.w3.org/2000/svg" xmlns:xlink="http://www.w3.org/1999/xlink"><g id="svgg"><path id="path0" d="M156.800 177.200 L 156.800 184.000 145.400 184.000 L 134.000 184.000 134.000 185.200 L 134.000 186.400 131.600 186.400 L 129.200 186.400 129.200 187.600 C 129.200 188.613,129.044 188.800,128.200 188.800 C 127.407 188.800,127.200 189.002,127.200 189.773 C 127.200 190.538,126.964 190.774,126.100 190.873 L 125.000 191.000 125.000 212.600 L 125.000 234.200 126.100 234.327 C 127.048 234.436,127.200 234.633,127.200 235.750 C 127.200 237.983,127.951 238.548,131.156 238.730 C 133.987 238.890,134.000 238.895,134.000 240.045 L 134.000 241.200 153.200 241.200 L 172.400 241.200 172.400 205.800 L 172.400 170.400 164.600 170.400 L 156.800 170.400 156.800 177.200 M342.000 205.800 L 342.000 241.200 360.974 241.200 C 380.378 241.200,381.895 241.089,382.273 239.643 C 382.415 239.100,382.949 238.842,384.234 238.697 C 386.480 238.444,387.147 237.875,387.455 235.948 C 387.661 234.655,387.859 234.400,388.651 234.400 L 389.600 234.400 389.600 212.600 L 389.600 190.800 388.621 190.800 C 387.722 190.800,387.632 190.628,387.521 188.700 L 387.400 186.600 385.100 186.480 C 382.847 186.363,382.800 186.336,382.800 185.180 L 382.800 184.000 370.200 184.000 L 357.600 184.000 357.600 177.200 L 357.600 170.400 349.800 170.400 L 342.000 170.400 342.000 205.800 M10.400 212.600 L 10.400 241.200 19.400 241.200 L 28.400 241.200 28.400 221.800 L 28.400 202.400 29.600 202.400 C 30.667 202.400,30.800 202.267,30.800 201.200 C 30.800 200.133,30.933 200.000,32.000 200.000 C 33.067 200.000,33.200 199.867,33.200 198.800 C 33.200 197.612,33.222 197.600,35.400 197.600 C 37.468 197.600,37.600 197.541,37.600 196.620 C 37.600 195.707,37.758 195.632,39.900 195.520 C 42.077 195.406,42.207 195.341,42.327 194.300 L 42.453 193.200 47.040 193.200 L 51.626 193.200 51.513 188.700 L 51.400 184.200 43.600 184.200 L 35.800 184.200 35.673 185.300 C 35.553 186.350,35.447 186.400,33.373 186.400 C 31.225 186.400,31.200 186.414,31.200 187.600 C 31.200 188.661,31.064 188.800,30.027 188.800 C 29.054 188.800,28.825 188.988,28.687 189.900 C 28.595 190.505,28.493 189.425,28.460 187.500 L 28.400 184.000 19.400 184.000 L 10.400 184.000 10.400 212.600 M70.000 186.400 L 70.000 188.800 68.800 188.800 C 67.795 188.800,67.600 188.959,67.600 189.773 C 67.600 190.538,67.364 190.774,66.500 190.873 C 65.410 190.999,65.399 191.030,65.284 194.300 L 65.168 197.600 70.784 197.600 L 76.400 197.600 76.400 195.400 L 76.400 193.200 84.573 193.200 L 92.747 193.200 92.873 194.300 C 92.973 195.164,93.236 195.427,94.100 195.527 C 95.149 195.647,95.200 195.753,95.200 197.821 L 95.200 199.989 82.700 200.094 L 70.200 200.200 70.073 201.300 C 69.967 202.221,69.756 202.400,68.773 202.400 C 67.736 202.400,67.600 202.539,67.600 203.600 C 67.600 204.667,67.467 204.800,66.400 204.800 C 65.387 204.800,65.200 204.956,65.200 205.800 C 65.200 206.600,65.000 206.800,64.200 206.800 C 63.237 206.800,63.200 206.895,63.200 209.372 C 63.200 211.720,63.123 211.955,62.316 212.072 C 61.058 212.254,60.885 213.287,60.840 220.900 L 60.800 227.600 62.000 227.600 L 63.200 227.600 63.200 231.000 C 63.200 234.360,63.212 234.400,64.200 234.400 C 65.000 234.400,65.200 234.600,65.200 235.400 C 65.200 236.244,65.387 236.400,66.400 236.400 C 67.467 236.400,67.600 236.533,67.600 237.600 C 67.600 238.788,67.622 238.800,69.800 238.800 C 71.978 238.800,72.000 238.812,72.000 240.000 L 72.000 241.200 91.400 241.200 L 110.800 241.200 110.800 216.000 L 110.800 190.800 109.600 190.800 C 108.587 190.800,108.400 190.644,108.400 189.800 C 108.400 189.000,108.200 188.800,107.400 188.800 C 106.556 188.800,106.400 188.613,106.400 187.600 C 106.400 186.533,106.267 186.400,105.200 186.400 C 104.133 186.400,104.000 186.267,104.000 185.200 L 104.000 184.000 87.000 184.000 L 70.000 184.000 70.000 186.400 M188.800 212.600 L 188.800 241.200 220.600 241.200 L 252.400 241.200 252.400 240.000 C 252.400 238.933,252.533 238.800,253.600 238.800 C 254.667 238.800,254.800 238.667,254.800 237.600 C 254.800 236.533,254.933 236.400,256.000 236.400 C 257.005 236.400,257.200 236.241,257.200 235.427 C 257.200 234.662,257.436 234.426,258.300 234.327 C 259.164 234.227,259.427 233.964,259.527 233.100 C 259.626 232.236,259.862 232.000,260.627 232.000 C 261.441 232.000,261.600 231.805,261.600 230.800 C 261.600 229.733,261.733 229.600,262.800 229.600 C 263.805 229.600,264.000 229.441,264.000 228.627 C 264.000 227.862,264.236 227.626,265.100 227.527 L 266.200 227.400 266.200 205.800 L 266.200 184.200 258.300 184.092 L 250.400 183.983 250.400 206.965 L 250.400 229.947 249.300 230.073 C 248.512 230.164,248.164 230.456,248.072 231.100 C 247.946 231.986,247.854 232.000,242.172 232.000 L 236.400 232.000 236.400 208.000 L 236.400 184.000 227.400 184.000 L 218.400 184.000 218.400 208.000 L 218.400 232.000 212.600 232.000 L 206.800 232.000 206.800 231.000 C 206.800 230.156,206.613 230.000,205.600 230.000 L 204.400 230.000 204.400 207.000 L 204.400 184.000 196.600 184.000 L 188.800 184.000 188.800 212.600 M287.300 184.265 C 287.025 184.376,286.800 184.902,286.800 185.433 C 286.800 186.338,286.660 186.400,284.600 186.400 C 282.422 186.400,282.400 186.412,282.400 187.600 C 282.400 188.667,282.267 188.800,281.200 188.800 L 280.000 188.800 280.000 212.600 L 280.000 236.400 281.200 236.400 C 282.267 236.400,282.400 236.533,282.400 237.600 C 282.400 238.786,282.425 238.800,284.573 238.800 C 286.647 238.800,286.753 238.850,286.873 239.900 L 287.000 241.000 302.662 241.105 C 318.873 241.213,320.293 241.094,320.685 239.595 C 320.863 238.915,321.234 238.800,323.247 238.800 L 325.600 238.800 325.600 236.600 C 325.600 234.422,325.612 234.400,326.800 234.400 L 328.000 234.400 328.000 228.600 L 328.000 222.800 323.600 222.800 L 319.200 222.800 319.200 226.400 L 319.200 230.000 307.600 230.000 L 296.000 230.000 296.000 224.205 L 296.000 218.409 311.900 218.305 L 327.800 218.200 327.905 204.500 L 328.011 190.800 326.805 190.800 C 325.611 190.800,325.600 190.780,325.600 188.600 L 325.600 186.400 323.400 186.400 C 321.222 186.400,321.200 186.388,321.200 185.200 L 321.200 184.000 304.500 184.032 C 295.315 184.049,287.575 184.154,287.300 184.265 M155.127 194.200 C 155.378 194.750,155.857 195.200,156.191 195.200 C 157.264 195.200,157.095 229.853,156.020 230.194 C 155.592 230.330,155.130 230.792,154.994 231.220 C 154.763 231.947,154.343 232.000,148.773 232.000 L 142.800 232.000 142.800 212.600 L 142.800 193.200 148.736 193.200 L 154.672 193.200 155.127 194.200 M310.000 200.000 L 310.000 206.800 303.000 206.800 L 296.000 206.800 296.000 201.227 L 296.000 195.653 297.100 195.527 C 297.964 195.427,298.227 195.164,298.327 194.300 L 298.453 193.200 304.227 193.200 L 310.000 193.200 310.000 200.000 M371.746 195.056 C 372.067 197.400,372.074 228.502,371.753 230.439 L 371.515 231.879 370.576 230.939 C 369.673 230.037,369.401 230.000,363.618 230.000 L 357.600 230.000 357.600 212.800 L 357.600 195.600 358.800 195.600 C 359.867 195.600,360.000 195.467,360.000 194.400 L 360.000 193.200 365.746 193.200 L 371.491 193.200 371.746 195.056 M93.324 210.030 C 93.443 210.486,93.914 210.957,94.370 211.076 C 95.180 211.288,95.200 211.518,95.200 220.647 L 95.200 230.000 89.500 230.005 C 82.996 230.012,82.252 230.138,81.673 231.335 C 81.272 232.164,81.253 232.154,81.227 231.100 C 81.203 230.134,81.042 229.999,79.900 229.988 C 78.725 229.977,78.677 229.932,79.400 229.522 C 80.739 228.762,80.788 228.453,80.794 220.556 C 80.797 216.352,80.914 212.077,81.054 211.056 L 81.309 209.200 87.208 209.200 C 92.841 209.200,93.116 209.237,93.324 210.030 " stroke="none" fill="#040404" fill-rule="evenodd"></path><path id="path1" d="" stroke="none" fill="#080404" fill-rule="evenodd"></path><path id="path2" d="" stroke="none" fill="#080404" fill-rule="evenodd"></path><path id="path3" d="" stroke="none" fill="#080404" fill-rule="evenodd"></path><path id="path4" d="" stroke="none" fill="#080404" fill-rule="evenodd"></path></g></svg>