<svg id="svg" version="1.1" width="400" height="400" viewBox="0 0 400 400" xmlns="http://www.w3.org/2000/svg" xmlns:xlink="http://www.w3.org/1999/xlink"><g id="svgg"><path id="path0" d="M190.600 8.400 C 190.456 8.633,188.196 8.800,185.176 8.800 C 181.992 8.800,180.000 8.954,180.000 9.200 C 180.000 9.435,178.608 9.600,176.624 9.600 C 174.767 9.600,173.136 9.780,173.000 10.000 C 172.864 10.220,171.773 10.400,170.576 10.400 C 169.379 10.400,168.400 10.580,168.400 10.800 C 168.400 11.020,167.410 11.200,166.200 11.200 C 164.990 11.200,164.000 11.380,164.000 11.600 C 164.000 11.820,163.100 12.000,162.000 12.000 C 160.900 12.000,160.000 12.180,160.000 12.400 C 160.000 12.620,159.280 12.800,158.400 12.800 C 157.520 12.800,156.800 12.980,156.800 13.200 C 156.800 13.420,156.137 13.600,155.326 13.600 C 153.687 13.600,148.985 14.626,147.905 15.218 C 147.523 15.428,146.769 15.600,146.229 15.600 C 145.689 15.600,145.136 15.780,145.000 16.000 C 144.864 16.220,144.324 16.400,143.800 16.400 C 143.276 16.400,142.736 16.580,142.600 16.800 C 142.464 17.020,141.924 17.200,141.400 17.200 C 140.876 17.200,140.336 17.380,140.200 17.600 C 140.064 17.820,139.513 18.000,138.976 18.000 C 138.439 18.000,138.000 18.180,138.000 18.400 C 138.000 18.620,137.460 18.800,136.800 18.800 C 136.140 18.800,135.600 18.980,135.600 19.200 C 135.600 19.420,135.060 19.600,134.400 19.600 C 133.740 19.600,133.200 19.780,133.200 20.000 C 133.200 20.220,132.840 20.400,132.400 20.400 C 131.960 20.400,131.600 20.580,131.600 20.800 C 131.600 21.020,131.150 21.200,130.600 21.200 C 130.050 21.200,129.600 21.360,129.600 21.555 C 129.600 21.751,128.925 22.037,128.100 22.190 C 127.275 22.344,125.523 22.994,124.206 23.635 C 122.889 24.276,121.494 24.800,121.106 24.800 C 120.718 24.800,120.400 24.980,120.400 25.200 C 120.400 25.420,120.040 25.600,119.600 25.600 C 119.160 25.600,118.800 25.780,118.800 26.000 C 118.800 26.220,118.440 26.400,118.000 26.400 C 117.560 26.400,117.200 26.580,117.200 26.800 C 117.200 27.020,116.840 27.200,116.400 27.200 C 115.960 27.200,115.600 27.346,115.600 27.525 C 115.600 27.704,114.970 28.098,114.200 28.400 C 113.430 28.702,112.800 29.096,112.800 29.275 C 112.800 29.454,112.440 29.600,112.000 29.600 C 111.560 29.600,111.200 29.780,111.200 30.000 C 111.200 30.220,110.874 30.400,110.476 30.400 C 110.079 30.400,108.707 31.030,107.428 31.800 C 106.149 32.570,104.945 33.200,104.752 33.200 C 104.558 33.200,104.400 33.380,104.400 33.600 C 104.400 33.820,104.040 34.000,103.600 34.000 C 103.160 34.000,102.800 34.180,102.800 34.400 C 102.800 34.620,102.480 34.800,102.088 34.800 C 101.697 34.800,101.117 35.160,100.800 35.600 C 100.483 36.040,99.903 36.400,99.512 36.400 C 99.120 36.400,98.800 36.580,98.800 36.800 C 98.800 37.020,98.530 37.200,98.200 37.200 C 97.870 37.200,97.600 37.347,97.600 37.526 C 97.600 37.705,97.015 38.157,96.300 38.530 C 94.024 39.716,92.240 40.863,91.611 41.544 C 91.275 41.908,90.460 42.474,89.800 42.803 C 89.140 43.131,87.939 44.075,87.131 44.900 C 86.324 45.725,85.424 46.406,85.131 46.413 C 84.617 46.425,82.461 48.052,80.513 49.900 C 79.991 50.395,79.388 50.800,79.173 50.800 C 78.958 50.800,77.793 51.790,76.583 53.000 C 75.373 54.210,74.234 55.200,74.052 55.200 C 73.871 55.200,71.234 57.630,68.193 60.600 C 65.151 63.570,62.508 66.000,62.319 66.000 C 62.130 66.000,61.864 66.290,61.728 66.644 C 61.592 66.998,59.978 68.831,58.140 70.719 C 56.303 72.607,54.800 74.311,54.800 74.507 C 54.800 74.703,54.080 75.554,53.200 76.400 C 52.320 77.246,51.600 78.152,51.600 78.414 C 51.600 78.677,50.880 79.522,50.000 80.294 C 49.120 81.065,48.400 81.853,48.400 82.045 C 48.400 82.365,47.334 83.746,46.100 85.025 C 45.825 85.310,45.600 85.786,45.600 86.083 C 45.600 86.380,45.240 86.883,44.800 87.200 C 44.360 87.517,44.000 87.973,44.000 88.213 C 44.000 88.454,43.460 89.168,42.800 89.800 C 42.140 90.432,41.600 91.171,41.600 91.442 C 41.600 91.712,41.439 91.993,41.242 92.067 C 40.857 92.210,39.640 94.138,38.505 96.400 C 38.119 97.170,37.487 98.091,37.102 98.447 C 36.716 98.803,36.400 99.348,36.400 99.659 C 36.400 99.969,36.040 100.483,35.600 100.800 C 35.160 101.117,34.800 101.697,34.800 102.088 C 34.800 102.480,34.620 102.800,34.400 102.800 C 34.180 102.800,34.000 103.160,34.000 103.600 C 34.000 104.040,33.820 104.400,33.600 104.400 C 33.380 104.400,33.200 104.558,33.200 104.752 C 33.200 104.945,32.570 106.149,31.800 107.428 C 31.030 108.707,30.400 110.079,30.400 110.476 C 30.400 110.874,30.220 111.200,30.000 111.200 C 29.780 111.200,29.600 111.494,29.600 111.853 C 29.600 112.212,29.285 112.799,28.900 113.157 C 27.923 114.067,27.200 115.443,27.200 116.395 C 27.200 116.838,27.020 117.200,26.800 117.200 C 26.580 117.200,26.400 117.560,26.400 118.000 C 26.400 118.440,26.220 118.800,26.000 118.800 C 25.780 118.800,25.600 119.034,25.600 119.320 C 25.600 120.056,24.659 121.993,24.300 121.997 C 24.135 121.999,24.000 122.326,24.000 122.725 C 24.000 123.124,23.550 124.383,23.000 125.523 C 22.450 126.663,22.000 128.047,22.000 128.598 C 22.000 129.149,21.820 129.600,21.600 129.600 C 21.380 129.600,21.200 130.050,21.200 130.600 C 21.200 131.150,21.020 131.600,20.800 131.600 C 20.580 131.600,20.400 131.960,20.400 132.400 C 20.400 132.840,20.220 133.200,20.000 133.200 C 19.780 133.200,19.600 133.740,19.600 134.400 C 19.600 135.060,19.420 135.600,19.200 135.600 C 18.980 135.600,18.800 136.140,18.800 136.800 C 18.800 137.460,18.620 138.000,18.400 138.000 C 18.180 138.000,18.000 138.439,18.000 138.976 C 18.000 139.513,17.820 140.064,17.600 140.200 C 17.380 140.336,17.200 140.876,17.200 141.400 C 17.200 141.924,17.020 142.464,16.800 142.600 C 16.580 142.736,16.400 143.276,16.400 143.800 C 16.400 144.324,16.220 144.864,16.000 145.000 C 15.780 145.136,15.600 145.766,15.600 146.400 C 15.600 147.034,15.420 147.664,15.200 147.800 C 14.980 147.936,14.800 148.631,14.800 149.344 C 14.800 150.057,14.616 150.824,14.392 151.048 C 14.167 151.273,13.871 152.659,13.734 154.128 C 13.597 155.598,13.330 156.800,13.142 156.800 C 12.954 156.800,12.800 157.520,12.800 158.400 C 12.800 159.280,12.620 160.000,12.400 160.000 C 12.180 160.000,12.000 160.900,12.000 162.000 C 12.000 163.100,11.820 164.000,11.600 164.000 C 11.380 164.000,11.200 164.990,11.200 166.200 C 11.200 167.410,11.020 168.400,10.800 168.400 C 10.580 168.400,10.400 169.379,10.400 170.576 C 10.400 171.773,10.220 172.864,10.000 173.000 C 9.780 173.136,9.600 174.767,9.600 176.624 C 9.600 178.608,9.435 180.000,9.200 180.000 C 8.954 180.000,8.800 181.992,8.800 185.176 C 8.800 188.196,8.633 190.456,8.400 190.600 C 7.858 190.935,7.858 209.065,8.400 209.400 C 8.633 209.544,8.800 211.804,8.800 214.824 C 8.800 218.008,8.954 220.000,9.200 220.000 C 9.435 220.000,9.600 221.392,9.600 223.376 C 9.600 225.233,9.780 226.864,10.000 227.000 C 10.220 227.136,10.400 228.227,10.400 229.424 C 10.400 230.621,10.580 231.600,10.800 231.600 C 11.020 231.600,11.200 232.579,11.200 233.776 C 11.200 234.973,11.380 236.064,11.600 236.200 C 11.820 236.336,12.000 237.247,12.000 238.224 C 12.000 239.201,12.180 240.000,12.400 240.000 C 12.620 240.000,12.800 240.720,12.800 241.600 C 12.800 242.480,12.954 243.200,13.142 243.200 C 13.330 243.200,13.595 244.388,13.731 245.840 C 13.969 248.389,14.516 250.644,15.249 252.095 C 15.442 252.477,15.600 253.332,15.600 253.995 C 15.600 254.658,15.780 255.200,16.000 255.200 C 16.220 255.200,16.400 255.639,16.400 256.176 C 16.400 256.713,16.580 257.264,16.800 257.400 C 17.020 257.536,17.200 258.177,17.200 258.824 C 17.200 259.471,17.380 260.000,17.600 260.000 C 17.820 260.000,18.000 260.439,18.000 260.976 C 18.000 261.513,18.180 262.064,18.400 262.200 C 18.620 262.336,18.800 262.887,18.800 263.424 C 18.800 263.961,18.980 264.400,19.200 264.400 C 19.420 264.400,19.600 264.940,19.600 265.600 C 19.600 266.260,19.780 266.800,20.000 266.800 C 20.220 266.800,20.400 267.129,20.400 267.532 C 20.400 267.935,20.836 269.126,21.369 270.179 C 21.903 271.232,22.241 272.350,22.121 272.662 C 22.001 272.974,22.150 273.538,22.451 273.915 C 23.408 275.110,24.000 276.363,24.000 277.195 C 24.000 277.638,24.180 278.000,24.400 278.000 C 24.620 278.000,24.800 278.360,24.800 278.800 C 24.800 279.240,24.980 279.600,25.200 279.600 C 25.420 279.600,25.600 279.960,25.600 280.400 C 25.600 280.840,25.780 281.200,26.000 281.200 C 26.220 281.200,26.400 281.560,26.400 282.000 C 26.400 282.440,26.580 282.800,26.800 282.800 C 27.020 282.800,27.200 283.304,27.200 283.920 C 27.200 285.420,28.038 287.149,28.900 287.428 C 29.285 287.552,29.600 287.912,29.600 288.227 C 29.600 288.542,29.780 288.800,30.000 288.800 C 30.220 288.800,30.400 289.076,30.400 289.413 C 30.400 290.064,32.312 294.062,32.785 294.400 C 32.938 294.510,33.319 295.185,33.630 295.900 C 33.941 296.615,34.331 297.200,34.498 297.200 C 34.664 297.200,34.800 297.520,34.800 297.912 C 34.800 298.303,35.160 298.883,35.600 299.200 C 36.040 299.517,36.400 300.031,36.400 300.341 C 36.400 300.652,36.716 301.197,37.102 301.553 C 37.487 301.909,38.119 302.830,38.505 303.600 C 39.400 305.383,40.814 307.740,41.146 308.000 C 41.286 308.110,41.656 308.695,41.968 309.300 C 42.280 309.905,42.685 310.400,42.868 310.400 C 43.050 310.400,43.200 310.594,43.200 310.831 C 43.200 311.069,43.920 311.954,44.800 312.800 C 45.680 313.646,46.404 314.576,46.410 314.869 C 46.419 315.364,46.861 315.971,49.700 319.383 C 50.305 320.111,50.800 320.821,50.800 320.962 C 50.800 321.102,51.790 322.207,53.000 323.417 C 54.210 324.627,55.200 325.792,55.200 326.006 C 55.200 326.220,56.460 327.657,58.000 329.200 C 59.540 330.743,60.800 332.274,60.800 332.603 C 60.800 332.931,61.120 333.200,61.512 333.200 C 61.903 333.200,62.488 333.592,62.812 334.070 C 63.135 334.549,63.985 335.493,64.700 336.167 C 65.415 336.842,66.000 337.544,66.000 337.726 C 66.000 338.200,67.065 339.200,67.569 339.200 C 67.803 339.200,69.050 340.239,70.341 341.510 C 71.631 342.780,73.272 344.265,73.987 344.810 C 74.701 345.354,75.891 346.385,76.630 347.100 C 77.369 347.815,78.180 348.400,78.432 348.400 C 78.685 348.400,79.522 349.120,80.294 350.000 C 81.065 350.880,81.879 351.600,82.101 351.600 C 82.324 351.600,82.797 351.933,83.153 352.341 C 83.509 352.748,84.428 353.405,85.195 353.800 C 85.962 354.195,87.069 355.032,87.655 355.659 C 88.242 356.287,88.919 356.800,89.160 356.800 C 89.402 356.800,89.600 356.950,89.600 357.132 C 89.600 357.315,90.095 357.720,90.700 358.032 C 91.305 358.345,92.149 358.915,92.575 359.300 C 93.002 359.685,93.587 360.000,93.875 360.000 C 94.164 360.000,94.400 360.150,94.400 360.333 C 94.400 360.517,95.390 361.185,96.600 361.818 C 97.810 362.451,98.800 363.111,98.800 363.284 C 98.800 363.458,99.120 363.600,99.512 363.600 C 99.903 363.600,100.483 363.960,100.800 364.400 C 101.117 364.840,101.697 365.200,102.088 365.200 C 102.480 365.200,102.800 365.380,102.800 365.600 C 102.800 365.820,103.160 366.000,103.600 366.000 C 104.040 366.000,104.400 366.180,104.400 366.400 C 104.400 366.620,104.636 366.800,104.925 366.800 C 105.213 366.800,105.798 367.120,106.225 367.511 C 106.651 367.903,108.032 368.724,109.292 369.337 C 110.553 369.950,111.689 370.620,111.816 370.826 C 111.943 371.032,112.397 371.200,112.824 371.200 C 113.251 371.200,113.601 371.335,113.603 371.500 C 113.607 371.906,115.586 372.800,116.480 372.800 C 116.876 372.800,117.200 372.980,117.200 373.200 C 117.200 373.420,117.560 373.600,118.000 373.600 C 118.440 373.600,118.800 373.780,118.800 374.000 C 118.800 374.220,119.160 374.400,119.600 374.400 C 120.040 374.400,120.400 374.580,120.400 374.800 C 120.400 375.020,120.760 375.200,121.200 375.200 C 121.640 375.200,122.000 375.380,122.000 375.600 C 122.000 375.820,122.320 376.000,122.710 376.000 C 123.101 376.000,124.496 376.534,125.810 377.187 C 127.125 377.841,128.404 378.381,128.654 378.387 C 128.904 378.394,129.624 378.669,130.254 378.998 C 130.884 379.326,131.805 379.596,132.300 379.598 C 132.795 379.599,133.200 379.780,133.200 380.000 C 133.200 380.220,133.740 380.400,134.400 380.400 C 135.060 380.400,135.600 380.580,135.600 380.800 C 135.600 381.020,136.140 381.200,136.800 381.200 C 137.460 381.200,138.000 381.380,138.000 381.600 C 138.000 381.820,138.450 382.000,139.000 382.000 C 139.550 382.000,140.000 382.180,140.000 382.400 C 140.000 382.620,140.529 382.800,141.176 382.800 C 141.823 382.800,142.464 382.980,142.600 383.200 C 142.736 383.420,143.287 383.600,143.824 383.600 C 144.361 383.600,144.800 383.780,144.800 384.000 C 144.800 384.220,145.419 384.400,146.176 384.400 C 146.933 384.400,147.664 384.580,147.800 384.800 C 147.936 385.020,148.476 385.200,149.000 385.200 C 149.524 385.200,150.052 385.361,150.174 385.558 C 150.295 385.755,151.071 386.004,151.897 386.112 C 152.724 386.219,154.390 386.596,155.600 386.949 C 156.810 387.301,159.195 387.708,160.900 387.852 C 162.605 387.997,164.000 388.269,164.000 388.458 C 164.000 388.646,164.990 388.800,166.200 388.800 C 167.410 388.800,168.400 388.980,168.400 389.200 C 168.400 389.420,169.379 389.600,170.576 389.600 C 171.773 389.600,172.864 389.780,173.000 390.000 C 173.136 390.220,174.767 390.400,176.624 390.400 C 178.608 390.400,180.000 390.565,180.000 390.800 C 180.000 391.046,181.992 391.200,185.176 391.200 C 188.196 391.200,190.456 391.367,190.600 391.600 C 190.935 392.142,209.065 392.142,209.400 391.600 C 209.544 391.367,211.804 391.200,214.824 391.200 C 218.008 391.200,220.000 391.046,220.000 390.800 C 220.000 390.565,221.392 390.400,223.376 390.400 C 225.233 390.400,226.864 390.220,227.000 390.000 C 227.136 389.780,228.227 389.600,229.424 389.600 C 230.621 389.600,231.600 389.420,231.600 389.200 C 231.600 388.980,232.579 388.800,233.776 388.800 C 234.973 388.800,236.049 388.644,236.168 388.452 C 236.286 388.261,237.823 387.979,239.584 387.826 C 241.345 387.672,242.894 387.371,243.027 387.157 C 243.159 386.943,243.603 386.874,244.014 387.004 C 244.424 387.135,245.300 386.962,245.960 386.621 C 246.620 386.279,247.699 386.000,248.357 386.000 C 249.014 386.000,249.664 385.820,249.800 385.600 C 249.936 385.380,250.476 385.200,251.000 385.200 C 251.524 385.200,252.064 385.020,252.200 384.800 C 252.336 384.580,253.067 384.400,253.824 384.400 C 254.581 384.400,255.200 384.220,255.200 384.000 C 255.200 383.780,255.639 383.600,256.176 383.600 C 256.713 383.600,257.264 383.420,257.400 383.200 C 257.536 382.980,258.177 382.800,258.824 382.800 C 259.471 382.800,260.000 382.620,260.000 382.400 C 260.000 382.180,260.439 382.000,260.976 382.000 C 261.513 382.000,262.064 381.820,262.200 381.600 C 262.336 381.380,262.887 381.200,263.424 381.200 C 263.961 381.200,264.400 381.020,264.400 380.800 C 264.400 380.580,264.940 380.400,265.600 380.400 C 266.260 380.400,266.800 380.236,266.800 380.035 C 266.800 379.834,267.519 379.549,268.398 379.400 C 269.277 379.252,270.097 378.966,270.222 378.765 C 270.346 378.564,270.797 378.400,271.224 378.400 C 271.651 378.400,272.000 378.237,272.000 378.037 C 272.000 377.838,272.328 377.761,272.728 377.865 C 273.128 377.970,273.690 377.773,273.977 377.428 C 274.263 377.083,274.836 376.800,275.249 376.800 C 275.662 376.800,276.000 376.620,276.000 376.400 C 276.000 376.180,276.360 376.000,276.800 376.000 C 277.240 376.000,277.600 375.820,277.600 375.600 C 277.600 375.380,278.050 375.200,278.600 375.200 C 279.150 375.200,279.600 375.020,279.600 374.800 C 279.600 374.580,279.960 374.400,280.400 374.400 C 280.840 374.400,281.200 374.220,281.200 374.000 C 281.200 373.780,281.560 373.600,282.000 373.600 C 282.440 373.600,282.800 373.420,282.800 373.200 C 282.800 372.980,283.160 372.800,283.600 372.800 C 284.040 372.800,284.400 372.620,284.400 372.400 C 284.400 372.180,284.760 372.000,285.200 372.000 C 285.640 372.000,286.000 371.820,286.000 371.600 C 286.000 371.380,286.214 371.200,286.476 371.200 C 287.147 371.200,294.400 367.563,294.400 367.227 C 294.400 367.074,295.030 366.702,295.800 366.400 C 296.570 366.098,297.200 365.704,297.200 365.525 C 297.200 365.346,297.520 365.200,297.912 365.200 C 298.303 365.200,298.883 364.840,299.200 364.400 C 299.517 363.960,300.097 363.600,300.488 363.600 C 300.880 363.600,301.200 363.423,301.200 363.208 C 301.200 362.992,301.650 362.702,302.200 362.564 C 302.750 362.426,303.200 362.153,303.200 361.957 C 303.200 361.760,303.436 361.600,303.725 361.600 C 304.013 361.600,304.598 361.285,305.025 360.900 C 305.451 360.515,306.295 359.945,306.900 359.632 C 307.505 359.320,308.000 358.915,308.000 358.732 C 308.000 358.550,308.236 358.400,308.525 358.400 C 308.813 358.400,309.436 358.040,309.908 357.600 C 310.380 357.160,311.134 356.800,311.583 356.800 C 312.072 356.800,312.400 356.538,312.400 356.147 C 312.400 355.420,313.857 354.000,314.602 354.000 C 314.866 354.000,315.646 353.460,316.337 352.800 C 317.028 352.140,317.741 351.600,317.922 351.600 C 318.102 351.600,318.768 351.060,319.400 350.400 C 320.032 349.740,320.701 349.200,320.885 349.200 C 321.070 349.200,321.999 348.435,322.951 347.500 C 323.902 346.565,325.095 345.530,325.602 345.200 C 327.763 343.793,343.793 327.763,345.200 325.602 C 345.530 325.095,346.565 323.902,347.500 322.951 C 348.435 321.999,349.200 321.070,349.200 320.885 C 349.200 320.701,349.740 320.032,350.400 319.400 C 351.060 318.768,351.600 318.080,351.600 317.872 C 351.600 317.664,351.933 317.203,352.341 316.847 C 352.748 316.491,353.405 315.570,353.800 314.800 C 354.195 314.030,354.852 313.109,355.259 312.753 C 355.667 312.397,356.000 311.991,356.000 311.849 C 356.000 311.708,356.540 311.028,357.200 310.337 C 357.860 309.646,358.400 308.838,358.400 308.541 C 358.400 308.243,358.550 308.000,358.732 308.000 C 358.915 308.000,359.320 307.505,359.632 306.900 C 359.945 306.295,360.515 305.451,360.900 305.025 C 361.285 304.598,361.600 304.013,361.600 303.725 C 361.600 303.436,361.760 303.200,361.957 303.200 C 362.153 303.200,362.426 302.750,362.564 302.200 C 362.702 301.650,362.992 301.200,363.208 301.200 C 363.423 301.200,363.600 300.880,363.600 300.488 C 363.600 300.097,363.960 299.517,364.400 299.200 C 364.840 298.883,365.200 298.303,365.200 297.912 C 365.200 297.520,365.346 297.200,365.525 297.200 C 365.704 297.200,366.098 296.570,366.400 295.800 C 366.702 295.030,367.074 294.400,367.227 294.400 C 367.563 294.400,371.200 287.147,371.200 286.476 C 371.200 286.214,371.380 286.000,371.600 286.000 C 371.820 286.000,372.000 285.640,372.000 285.200 C 372.000 284.760,372.180 284.400,372.400 284.400 C 372.620 284.400,372.800 284.040,372.800 283.600 C 372.800 283.160,372.980 282.800,373.200 282.800 C 373.420 282.800,373.600 282.440,373.600 282.000 C 373.600 281.560,373.780 281.200,374.000 281.200 C 374.220 281.200,374.400 280.840,374.400 280.400 C 374.400 279.960,374.580 279.600,374.800 279.600 C 375.020 279.600,375.200 279.150,375.200 278.600 C 375.200 278.050,375.380 277.600,375.600 277.600 C 375.820 277.600,376.000 277.240,376.000 276.800 C 376.000 276.360,376.180 276.000,376.400 276.000 C 376.620 276.000,376.800 275.640,376.800 275.200 C 376.800 274.760,376.980 274.400,377.200 274.400 C 377.420 274.400,377.600 273.860,377.600 273.200 C 377.600 272.540,377.780 272.000,378.000 272.000 C 378.220 272.000,378.400 271.651,378.400 271.224 C 378.400 270.797,378.564 270.346,378.765 270.222 C 378.966 270.097,379.252 269.277,379.400 268.398 C 379.549 267.519,379.834 266.800,380.035 266.800 C 380.236 266.800,380.400 266.260,380.400 265.600 C 380.400 264.940,380.580 264.400,380.800 264.400 C 381.020 264.400,381.200 263.961,381.200 263.424 C 381.200 262.887,381.380 262.336,381.600 262.200 C 381.820 262.064,382.000 261.513,382.000 260.976 C 382.000 260.439,382.180 260.000,382.400 260.000 C 382.620 260.000,382.800 259.471,382.800 258.824 C 382.800 258.177,382.980 257.536,383.200 257.400 C 383.420 257.264,383.600 256.713,383.600 256.176 C 383.600 255.639,383.780 255.200,384.000 255.200 C 384.220 255.200,384.400 254.581,384.400 253.824 C 384.400 253.067,384.580 252.336,384.800 252.200 C 385.020 252.064,385.200 251.333,385.200 250.576 C 385.200 249.819,385.360 249.200,385.556 249.200 C 385.890 249.200,386.027 248.662,386.647 244.900 C 386.783 244.075,387.042 243.215,387.223 242.989 C 387.403 242.763,387.677 241.183,387.831 239.478 C 387.986 237.773,388.267 236.282,388.456 236.165 C 388.645 236.048,388.800 234.973,388.800 233.776 C 388.800 232.579,388.980 231.600,389.200 231.600 C 389.420 231.600,389.600 230.621,389.600 229.424 C 389.600 228.227,389.780 227.136,390.000 227.000 C 390.220 226.864,390.400 225.233,390.400 223.376 C 390.400 221.392,390.565 220.000,390.800 220.000 C 391.046 220.000,391.200 218.008,391.200 214.824 C 391.200 211.804,391.367 209.544,391.600 209.400 C 391.848 209.247,392.000 205.670,392.000 200.000 C 392.000 194.330,391.848 190.753,391.600 190.600 C 391.367 190.456,391.200 188.196,391.200 185.176 C 391.200 181.992,391.046 180.000,390.800 180.000 C 390.565 180.000,390.400 178.608,390.400 176.624 C 390.400 174.767,390.220 173.136,390.000 173.000 C 389.780 172.864,389.600 171.773,389.600 170.576 C 389.600 169.379,389.420 168.400,389.200 168.400 C 388.980 168.400,388.800 167.410,388.800 166.200 C 388.800 164.990,388.646 164.000,388.458 164.000 C 388.269 164.000,387.992 162.525,387.842 160.722 C 387.691 158.919,387.417 157.254,387.232 157.022 C 386.917 156.628,386.708 155.646,386.142 151.897 C 386.018 151.071,385.755 150.295,385.558 150.174 C 385.361 150.052,385.200 149.524,385.200 149.000 C 385.200 148.476,385.020 147.936,384.800 147.800 C 384.580 147.664,384.400 146.933,384.400 146.176 C 384.400 145.419,384.220 144.800,384.000 144.800 C 383.780 144.800,383.600 144.361,383.600 143.824 C 383.600 143.287,383.420 142.736,383.200 142.600 C 382.980 142.464,382.800 141.823,382.800 141.176 C 382.800 140.529,382.620 140.000,382.400 140.000 C 382.180 140.000,382.000 139.550,382.000 139.000 C 382.000 138.450,381.820 138.000,381.600 138.000 C 381.380 138.000,381.200 137.460,381.200 136.800 C 381.200 136.140,381.020 135.600,380.800 135.600 C 380.580 135.600,380.400 135.060,380.400 134.400 C 380.400 133.740,380.236 133.200,380.035 133.200 C 379.834 133.200,379.549 132.481,379.400 131.602 C 379.252 130.723,378.966 129.903,378.765 129.778 C 378.564 129.654,378.400 129.203,378.400 128.776 C 378.400 128.349,378.220 128.000,378.000 128.000 C 377.780 128.000,377.600 127.658,377.600 127.241 C 377.600 126.823,377.060 125.455,376.400 124.200 C 375.740 122.945,375.200 121.577,375.200 121.159 C 375.200 120.742,375.020 120.400,374.800 120.400 C 374.580 120.400,374.400 120.040,374.400 119.600 C 374.400 119.160,374.220 118.800,374.000 118.800 C 373.780 118.800,373.600 118.440,373.600 118.000 C 373.600 117.560,373.420 117.200,373.200 117.200 C 372.980 117.200,372.800 116.840,372.800 116.400 C 372.800 115.960,372.664 115.600,372.498 115.600 C 372.331 115.600,371.950 115.015,371.651 114.300 C 370.360 111.219,368.167 106.940,367.511 106.225 C 367.120 105.798,366.800 105.213,366.800 104.925 C 366.800 104.636,366.620 104.400,366.400 104.400 C 366.180 104.400,366.000 104.040,366.000 103.600 C 366.000 103.160,365.820 102.800,365.600 102.800 C 365.380 102.800,365.200 102.480,365.200 102.088 C 365.200 101.697,364.840 101.117,364.400 100.800 C 363.960 100.483,363.600 99.903,363.600 99.512 C 363.600 99.120,363.458 98.800,363.284 98.800 C 363.111 98.800,362.451 97.810,361.818 96.600 C 361.185 95.390,360.517 94.400,360.333 94.400 C 360.150 94.400,360.000 94.164,360.000 93.875 C 360.000 93.587,359.640 92.964,359.200 92.492 C 358.760 92.020,358.400 91.473,358.400 91.276 C 358.400 91.079,357.860 90.354,357.200 89.663 C 356.540 88.972,356.000 88.307,356.000 88.185 C 356.000 88.063,355.550 87.514,355.000 86.964 C 354.450 86.414,354.000 85.729,354.000 85.441 C 354.000 85.154,353.460 84.354,352.800 83.663 C 352.140 82.972,351.600 82.242,351.600 82.039 C 351.600 81.837,351.060 81.217,350.400 80.661 C 349.740 80.106,349.200 79.455,349.200 79.215 C 349.200 78.975,348.435 77.994,347.500 77.034 C 346.565 76.075,345.378 74.734,344.863 74.054 C 344.054 72.988,337.830 66.353,335.718 64.304 C 335.323 63.921,333.063 61.716,330.694 59.404 C 328.326 57.092,326.215 55.200,326.003 55.200 C 325.791 55.200,324.627 54.210,323.417 53.000 C 322.207 51.790,321.102 50.800,320.962 50.800 C 320.821 50.800,320.111 50.305,319.383 49.700 C 315.967 46.858,315.364 46.419,314.860 46.410 C 314.564 46.404,313.817 45.860,313.200 45.200 C 312.583 44.540,311.970 44.000,311.836 44.000 C 311.702 44.000,311.028 43.460,310.337 42.800 C 309.646 42.140,308.853 41.600,308.574 41.600 C 308.295 41.600,308.007 41.439,307.933 41.242 C 307.790 40.857,305.862 39.640,303.600 38.505 C 302.830 38.119,301.909 37.487,301.553 37.102 C 301.197 36.716,300.652 36.400,300.341 36.400 C 300.031 36.400,299.517 36.040,299.200 35.600 C 298.883 35.160,298.303 34.800,297.912 34.800 C 297.520 34.800,297.200 34.664,297.200 34.498 C 297.200 34.331,296.615 33.941,295.900 33.630 C 295.185 33.319,294.510 32.938,294.400 32.785 C 294.062 32.312,290.064 30.400,289.413 30.400 C 289.076 30.400,288.800 30.254,288.800 30.075 C 288.800 29.896,288.170 29.502,287.400 29.200 C 286.630 28.898,286.000 28.504,286.000 28.325 C 286.000 28.146,285.640 28.000,285.200 28.000 C 284.760 28.000,284.400 27.820,284.400 27.600 C 284.400 27.380,284.040 27.200,283.600 27.200 C 283.160 27.200,282.800 27.020,282.800 26.800 C 282.800 26.580,282.440 26.400,282.000 26.400 C 281.560 26.400,281.200 26.220,281.200 26.000 C 281.200 25.780,280.840 25.600,280.400 25.600 C 279.960 25.600,279.600 25.420,279.600 25.200 C 279.600 24.980,279.150 24.800,278.600 24.800 C 278.050 24.800,277.600 24.620,277.600 24.400 C 277.600 24.180,277.364 24.000,277.075 24.000 C 276.786 24.000,275.841 23.661,274.975 23.247 C 274.109 22.833,272.817 22.369,272.105 22.216 C 271.392 22.063,270.706 21.772,270.581 21.569 C 270.455 21.366,269.913 21.200,269.376 21.200 C 268.839 21.200,268.400 21.020,268.400 20.800 C 268.400 20.580,268.040 20.400,267.600 20.400 C 267.160 20.400,266.800 20.220,266.800 20.000 C 266.800 19.780,266.260 19.600,265.600 19.600 C 264.940 19.600,264.400 19.420,264.400 19.200 C 264.400 18.980,263.961 18.800,263.424 18.800 C 262.887 18.800,262.336 18.620,262.200 18.400 C 262.064 18.180,261.513 18.000,260.976 18.000 C 260.439 18.000,260.000 17.820,260.000 17.600 C 260.000 17.380,259.471 17.200,258.824 17.200 C 258.177 17.200,257.536 17.020,257.400 16.800 C 257.264 16.580,256.713 16.400,256.176 16.400 C 255.639 16.400,255.200 16.220,255.200 16.000 C 255.200 15.780,254.658 15.600,253.995 15.600 C 253.332 15.600,252.477 15.442,252.095 15.249 C 250.644 14.516,248.389 13.969,245.840 13.731 C 244.388 13.595,243.200 13.330,243.200 13.142 C 243.200 12.954,242.480 12.800,241.600 12.800 C 240.720 12.800,240.000 12.620,240.000 12.400 C 240.000 12.180,239.201 12.000,238.224 12.000 C 237.247 12.000,236.336 11.820,236.200 11.600 C 236.064 11.380,234.973 11.200,233.776 11.200 C 232.579 11.200,231.600 11.020,231.600 10.800 C 231.600 10.580,230.621 10.400,229.424 10.400 C 228.227 10.400,227.136 10.220,227.000 10.000 C 226.864 9.780,225.233 9.600,223.376 9.600 C 221.392 9.600,220.000 9.435,220.000 9.200 C 220.000 8.954,218.008 8.800,214.824 8.800 C 211.804 8.800,209.544 8.633,209.400 8.400 C 209.247 8.152,205.670 8.000,200.000 8.000 C 194.330 8.000,190.753 8.152,190.600 8.400 M73.000 121.200 C 73.136 121.420,74.227 121.600,75.424 121.600 C 76.621 121.600,77.600 121.780,77.600 122.000 C 77.600 122.220,78.140 122.400,78.800 122.400 C 79.733 122.400,80.000 122.578,80.000 123.200 C 80.000 123.640,79.820 124.000,79.600 124.000 C 79.378 124.000,79.200 125.067,79.200 126.400 C 79.200 127.733,79.022 128.800,78.800 128.800 C 78.580 128.800,78.400 129.790,78.400 131.000 C 78.400 132.210,78.220 133.200,78.000 133.200 C 77.780 133.200,77.600 134.100,77.600 135.200 C 77.600 136.300,77.420 137.200,77.200 137.200 C 76.980 137.200,76.800 138.179,76.800 139.376 C 76.800 140.573,76.620 141.664,76.400 141.800 C 76.180 141.936,76.000 143.027,76.000 144.224 C 76.000 145.421,75.820 146.400,75.600 146.400 C 75.380 146.400,75.200 147.199,75.200 148.176 C 75.200 149.153,75.020 150.064,74.800 150.200 C 74.580 150.336,74.400 151.416,74.400 152.600 C 74.400 153.784,74.220 154.864,74.000 155.000 C 73.780 155.136,73.600 156.137,73.600 157.224 C 73.600 158.311,73.437 159.200,73.237 159.200 C 73.037 159.200,72.773 160.145,72.649 161.300 C 71.950 167.842,71.364 171.973,71.100 172.236 C 70.935 172.399,70.800 173.313,70.800 174.267 L 70.800 176.000 68.800 176.000 C 67.700 176.000,66.800 175.820,66.800 175.600 C 66.800 175.380,65.900 175.200,64.800 175.200 L 62.800 175.200 62.800 173.200 C 62.800 172.100,62.980 171.200,63.200 171.200 C 63.420 171.200,63.600 170.210,63.600 169.000 C 63.600 167.790,63.780 166.800,64.000 166.800 C 64.220 166.800,64.400 165.900,64.400 164.800 C 64.400 163.700,64.580 162.800,64.800 162.800 C 65.020 162.800,65.200 161.810,65.200 160.600 C 65.200 159.390,65.380 158.400,65.600 158.400 C 65.822 158.400,66.000 157.333,66.000 156.000 C 66.000 154.667,66.178 153.600,66.400 153.600 C 66.620 153.600,66.800 152.801,66.800 151.824 C 66.800 150.847,66.980 149.936,67.200 149.800 C 67.420 149.664,67.600 148.573,67.600 147.376 C 67.600 146.179,67.780 145.200,68.000 145.200 C 68.220 145.200,68.400 144.221,68.400 143.024 C 68.400 141.827,68.580 140.736,68.800 140.600 C 69.020 140.464,69.200 139.474,69.200 138.400 C 69.200 137.326,69.380 136.336,69.600 136.200 C 69.820 136.064,70.000 135.232,70.000 134.350 C 70.000 133.469,70.170 132.430,70.377 132.043 C 70.584 131.656,70.880 129.508,71.034 127.269 C 71.188 125.031,71.469 123.200,71.657 123.200 C 71.846 123.200,72.000 122.660,72.000 122.000 C 72.000 120.822,72.513 120.412,73.000 121.200 M89.600 124.400 C 89.600 124.622,90.667 124.800,92.000 124.800 C 93.333 124.800,94.400 124.978,94.400 125.200 C 94.400 125.420,95.390 125.600,96.600 125.600 C 97.810 125.600,98.800 125.780,98.800 126.000 C 98.800 126.220,99.700 126.400,100.800 126.400 C 101.900 126.400,102.800 126.580,102.800 126.800 C 102.800 127.020,103.340 127.200,104.000 127.200 C 104.660 127.200,105.200 127.338,105.200 127.506 C 105.200 127.829,108.122 129.200,108.811 129.200 C 109.894 129.200,113.591 133.602,113.845 135.193 C 113.988 136.087,114.261 136.914,114.453 137.032 C 114.910 137.315,114.905 145.600,114.447 145.600 C 114.252 145.600,113.968 146.770,113.815 148.200 C 113.662 149.630,113.371 150.800,113.168 150.800 C 112.966 150.800,112.800 151.084,112.800 151.431 C 112.800 152.394,108.038 156.800,106.997 156.800 C 106.669 156.800,106.400 156.980,106.400 157.200 C 106.400 157.420,105.770 157.600,105.000 157.600 C 104.230 157.600,103.600 157.780,103.600 158.000 C 103.600 158.237,102.133 158.400,100.000 158.400 C 97.867 158.400,96.400 158.237,96.400 158.000 C 96.400 157.780,95.410 157.600,94.200 157.600 C 92.990 157.600,92.000 157.420,92.000 157.200 C 92.000 156.980,91.021 156.800,89.824 156.800 C 88.627 156.800,87.536 156.620,87.400 156.400 C 87.264 156.180,86.184 156.000,85.000 156.000 C 83.816 156.000,82.736 155.820,82.600 155.600 C 82.464 155.380,81.733 155.200,80.976 155.200 C 80.020 155.200,79.600 155.017,79.600 154.600 C 79.600 154.270,79.780 154.000,80.000 154.000 C 80.220 154.000,80.400 153.100,80.400 152.000 C 80.400 150.900,80.580 150.000,80.800 150.000 C 81.020 150.000,81.200 149.640,81.200 149.200 C 81.200 148.507,81.467 148.400,83.200 148.400 C 84.300 148.400,85.200 148.580,85.200 148.800 C 85.200 149.020,86.190 149.200,87.400 149.200 C 88.610 149.200,89.600 149.380,89.600 149.600 C 89.600 149.822,90.667 150.000,92.000 150.000 C 93.333 150.000,94.400 150.178,94.400 150.400 C 94.400 150.641,96.067 150.800,98.600 150.800 C 101.133 150.800,102.800 150.641,102.800 150.400 C 102.800 150.180,102.988 150.000,103.218 150.000 C 103.860 150.000,105.600 148.114,105.600 147.418 C 105.600 147.078,105.780 146.800,106.000 146.800 C 106.220 146.800,106.400 146.170,106.400 145.400 C 106.400 144.630,106.580 144.000,106.800 144.000 C 107.020 144.000,107.200 143.021,107.200 141.824 C 107.200 140.627,107.020 139.536,106.800 139.400 C 106.580 139.264,106.400 138.797,106.400 138.363 C 106.400 137.546,103.944 134.800,103.213 134.800 C 102.986 134.800,102.800 134.620,102.800 134.400 C 102.800 134.180,102.260 134.000,101.600 134.000 C 100.940 134.000,100.400 133.820,100.400 133.600 C 100.400 133.380,99.500 133.200,98.400 133.200 C 97.300 133.200,96.400 133.020,96.400 132.800 C 96.400 132.580,95.410 132.400,94.200 132.400 C 92.990 132.400,92.000 132.220,92.000 132.000 C 92.000 131.780,91.100 131.600,90.000 131.600 C 88.900 131.600,88.000 131.420,88.000 131.200 C 88.000 130.980,87.190 130.800,86.200 130.800 C 84.403 130.800,83.406 128.662,84.800 127.800 C 85.020 127.664,85.200 126.753,85.200 125.776 L 85.200 124.000 87.400 124.000 C 88.610 124.000,89.600 124.180,89.600 124.400 M129.600 131.200 C 129.600 131.420,130.513 131.600,131.629 131.600 C 132.853 131.600,133.884 131.826,134.229 132.171 C 134.886 132.829,135.035 137.200,134.400 137.200 C 134.180 137.200,134.000 138.190,134.000 139.400 C 134.000 140.610,133.820 141.600,133.600 141.600 C 133.380 141.600,133.200 142.500,133.200 143.600 C 133.200 144.700,133.020 145.600,132.800 145.600 C 132.580 145.600,132.400 146.590,132.400 147.800 C 132.400 149.010,132.220 150.000,132.000 150.000 C 131.778 150.000,131.600 151.056,131.600 152.367 C 131.600 153.668,131.430 154.793,131.223 154.867 C 131.015 154.940,130.720 156.845,130.566 159.100 C 130.412 161.355,130.131 163.200,129.943 163.200 C 129.754 163.200,129.600 164.190,129.600 165.400 C 129.600 166.610,129.420 167.600,129.200 167.600 C 128.980 167.600,128.800 168.590,128.800 169.800 C 128.800 171.010,128.620 172.000,128.400 172.000 C 128.180 172.000,128.000 172.900,128.000 174.000 C 128.000 175.100,127.820 176.000,127.600 176.000 C 127.380 176.000,127.200 176.979,127.200 178.176 C 127.200 179.373,127.020 180.464,126.800 180.600 C 126.580 180.736,126.400 181.647,126.400 182.624 C 126.400 183.601,126.220 184.400,126.000 184.400 C 125.780 184.400,125.600 184.760,125.600 185.200 C 125.600 185.733,125.333 186.000,124.800 186.000 C 124.360 186.000,124.000 185.820,124.000 185.600 C 124.000 185.380,123.087 185.200,121.971 185.200 C 120.747 185.200,119.716 184.974,119.371 184.629 C 118.714 183.971,118.565 179.600,119.200 179.600 C 119.420 179.600,119.600 178.801,119.600 177.824 C 119.600 176.847,119.760 175.948,119.956 175.827 C 120.152 175.706,120.442 173.626,120.600 171.204 C 120.758 168.782,121.048 166.800,121.244 166.800 C 121.440 166.800,121.600 165.900,121.600 164.800 C 121.600 163.700,121.780 162.800,122.000 162.800 C 122.220 162.800,122.400 161.810,122.400 160.600 C 122.400 159.390,122.580 158.400,122.800 158.400 C 123.020 158.400,123.200 157.421,123.200 156.224 C 123.200 155.027,123.380 153.936,123.600 153.800 C 123.820 153.664,124.000 152.753,124.000 151.776 C 124.000 150.799,124.180 150.000,124.400 150.000 C 124.620 150.000,124.800 149.021,124.800 147.824 C 124.800 146.627,124.980 145.536,125.200 145.400 C 125.420 145.264,125.600 144.173,125.600 142.976 C 125.600 141.779,125.780 140.800,126.000 140.800 C 126.220 140.800,126.400 140.001,126.400 139.024 C 126.400 138.047,126.580 137.136,126.800 137.000 C 127.020 136.864,127.200 135.773,127.200 134.576 C 127.200 133.379,127.380 132.400,127.600 132.400 C 127.820 132.400,128.000 132.040,128.000 131.600 C 128.000 131.067,128.267 130.800,128.800 130.800 C 129.240 130.800,129.600 130.980,129.600 131.200 M142.400 133.600 C 142.400 133.820,143.300 134.000,144.400 134.000 C 145.500 134.000,146.400 134.180,146.400 134.400 C 146.400 134.620,147.379 134.800,148.576 134.800 C 149.773 134.800,150.864 134.980,151.000 135.200 C 151.136 135.420,152.126 135.600,153.200 135.600 C 154.274 135.600,155.264 135.780,155.400 136.000 C 155.536 136.220,156.368 136.400,157.250 136.400 C 158.131 136.400,159.173 136.571,159.564 136.781 C 159.956 136.990,161.924 137.286,163.938 137.438 L 167.600 137.715 167.600 139.234 C 167.600 140.069,167.420 140.864,167.200 141.000 C 166.980 141.136,166.800 142.227,166.800 143.424 L 166.800 145.600 165.200 145.600 C 164.320 145.600,163.600 145.420,163.600 145.200 C 163.600 144.980,162.610 144.800,161.400 144.800 C 160.190 144.800,159.200 144.620,159.200 144.400 C 159.200 144.180,158.300 144.000,157.200 144.000 C 156.100 144.000,155.200 143.820,155.200 143.600 C 155.200 143.380,154.221 143.200,153.024 143.200 C 151.827 143.200,150.736 143.020,150.600 142.800 C 150.464 142.580,149.373 142.400,148.176 142.400 C 146.979 142.400,146.000 142.220,146.000 142.000 C 146.000 141.780,145.201 141.600,144.224 141.600 C 143.247 141.600,142.336 141.420,142.200 141.200 C 142.064 140.980,141.513 140.800,140.976 140.800 C 140.060 140.800,140.000 140.666,140.000 138.600 C 140.000 137.390,140.180 136.400,140.400 136.400 C 140.620 136.400,140.800 135.680,140.800 134.800 C 140.800 133.467,140.933 133.200,141.600 133.200 C 142.040 133.200,142.400 133.380,142.400 133.600 M185.200 141.200 C 185.200 141.420,185.920 141.600,186.800 141.600 L 188.400 141.600 188.400 143.600 C 188.400 144.700,188.220 145.600,188.000 145.600 C 187.780 145.600,187.600 146.590,187.600 147.800 C 187.600 149.010,187.420 150.000,187.200 150.000 C 186.978 150.000,186.800 151.067,186.800 152.400 C 186.800 153.733,186.622 154.800,186.400 154.800 C 186.180 154.800,186.000 155.610,186.000 156.600 C 186.000 157.590,185.820 158.400,185.600 158.400 C 185.378 158.400,185.200 159.467,185.200 160.800 C 185.200 162.133,185.022 163.200,184.800 163.200 C 184.580 163.200,184.400 164.190,184.400 165.400 C 184.400 166.610,184.220 167.600,184.000 167.600 C 183.780 167.600,183.600 168.500,183.600 169.600 C 183.600 170.700,183.420 171.600,183.200 171.600 C 182.980 171.600,182.800 172.590,182.800 173.800 C 182.800 175.010,182.620 176.000,182.400 176.000 C 182.180 176.000,182.000 176.979,182.000 178.176 C 182.000 179.373,181.820 180.464,181.600 180.600 C 181.380 180.736,181.200 181.636,181.200 182.600 C 181.200 183.564,181.035 184.455,180.834 184.579 C 180.632 184.704,180.339 186.784,180.182 189.203 C 180.025 191.621,179.740 193.600,179.549 193.600 C 179.357 193.600,179.200 193.960,179.200 194.400 C 179.200 195.093,178.933 195.200,177.200 195.200 C 176.100 195.200,175.200 195.020,175.200 194.800 C 175.200 194.580,174.300 194.400,173.200 194.400 C 171.467 194.400,171.200 194.293,171.200 193.600 C 171.200 193.160,171.380 192.800,171.600 192.800 C 171.820 192.800,172.000 191.900,172.000 190.800 C 172.000 189.700,172.180 188.800,172.400 188.800 C 172.620 188.800,172.800 187.810,172.800 186.600 C 172.800 185.390,172.980 184.400,173.200 184.400 C 173.422 184.400,173.600 183.333,173.600 182.000 C 173.600 180.667,173.778 179.600,174.000 179.600 C 174.220 179.600,174.400 178.610,174.400 177.400 C 174.400 176.190,174.580 175.200,174.800 175.200 C 175.020 175.200,175.200 174.300,175.200 173.200 C 175.200 172.100,175.380 171.200,175.600 171.200 C 175.820 171.200,176.000 170.210,176.000 169.000 C 176.000 167.790,176.180 166.800,176.400 166.800 C 176.620 166.800,176.800 165.900,176.800 164.800 C 176.800 163.700,176.980 162.800,177.200 162.800 C 177.420 162.800,177.600 161.821,177.600 160.624 C 177.600 159.427,177.780 158.336,178.000 158.200 C 178.220 158.064,178.400 157.074,178.400 156.000 C 178.400 154.926,178.557 153.950,178.748 153.832 C 178.939 153.714,179.224 151.813,179.380 149.609 C 179.536 147.404,179.830 145.600,180.032 145.600 C 180.234 145.600,180.400 144.520,180.400 143.200 L 180.400 140.800 182.800 140.800 C 184.133 140.800,185.200 140.978,185.200 141.200 M198.600 143.600 C 198.736 143.820,199.521 144.000,200.344 144.000 C 201.167 144.000,202.011 144.165,202.220 144.366 C 202.429 144.568,203.680 144.827,205.000 144.942 C 208.089 145.212,213.341 146.088,213.600 146.377 C 214.055 146.884,215.638 147.600,216.306 147.600 C 216.701 147.600,217.283 147.960,217.600 148.400 C 217.917 148.840,218.415 149.200,218.706 149.200 C 219.995 149.200,223.200 154.301,223.200 156.352 C 223.200 156.792,223.380 157.264,223.600 157.400 C 224.131 157.728,224.115 160.682,223.581 161.012 C 223.295 161.188,223.314 161.456,223.641 161.849 C 223.995 162.276,224.007 162.659,223.685 163.314 C 223.446 163.801,223.162 164.830,223.056 165.600 C 222.736 167.904,221.888 170.800,221.533 170.800 C 221.350 170.800,221.200 171.039,221.200 171.332 C 221.200 172.041,216.958 176.000,216.198 176.000 C 215.869 176.000,215.600 176.180,215.600 176.400 C 215.600 176.620,214.970 176.800,214.200 176.800 C 213.430 176.800,212.800 176.980,212.800 177.200 C 212.800 177.442,211.067 177.600,208.400 177.600 C 205.733 177.600,204.000 177.442,204.000 177.200 C 204.000 176.980,203.010 176.800,201.800 176.800 C 200.590 176.800,199.600 176.620,199.600 176.400 C 199.600 176.180,198.700 176.000,197.600 176.000 C 196.500 176.000,195.600 175.820,195.600 175.600 C 195.600 175.380,194.621 175.200,193.424 175.200 C 192.227 175.200,191.136 175.020,191.000 174.800 C 190.864 174.580,190.313 174.400,189.776 174.400 C 188.904 174.400,188.800 174.230,188.800 172.800 C 188.800 171.920,188.980 171.200,189.200 171.200 C 189.420 171.200,189.600 170.390,189.600 169.400 L 189.600 167.600 191.576 167.600 C 192.663 167.600,193.664 167.780,193.800 168.000 C 193.936 168.220,194.991 168.400,196.144 168.400 C 197.297 168.400,198.411 168.562,198.620 168.759 C 199.778 169.853,210.739 170.315,211.800 169.314 C 212.240 168.899,212.915 168.439,213.300 168.292 C 213.685 168.145,214.000 167.749,214.000 167.413 C 214.000 167.076,214.180 166.800,214.400 166.800 C 214.620 166.800,214.800 166.440,214.800 166.000 C 214.800 165.560,214.980 165.200,215.200 165.200 C 216.317 165.200,215.646 157.364,214.426 156.159 C 212.755 154.509,212.093 154.000,211.617 154.000 C 211.388 154.000,211.200 153.820,211.200 153.600 C 211.200 153.380,210.660 153.200,210.000 153.200 C 209.340 153.200,208.800 153.020,208.800 152.800 C 208.800 152.580,207.900 152.400,206.800 152.400 C 205.700 152.400,204.800 152.220,204.800 152.000 C 204.800 151.780,203.821 151.600,202.624 151.600 C 201.427 151.600,200.336 151.420,200.200 151.200 C 200.064 150.980,199.074 150.800,198.000 150.800 C 196.926 150.800,195.936 150.620,195.800 150.400 C 195.664 150.180,195.068 150.000,194.476 150.001 C 193.358 150.001,193.011 146.087,194.035 145.020 C 194.236 144.811,194.400 144.316,194.400 143.920 C 194.400 143.111,198.122 142.827,198.600 143.600 M250.220 152.771 C 250.429 152.975,251.590 153.247,252.800 153.376 C 257.517 153.879,257.600 153.918,257.600 155.622 C 257.600 156.464,257.780 157.264,258.000 157.400 C 258.220 157.536,258.400 158.436,258.400 159.400 C 258.400 160.364,258.580 161.264,258.800 161.400 C 259.020 161.536,259.200 162.267,259.200 163.024 C 259.200 163.781,259.380 164.400,259.600 164.400 C 259.820 164.400,260.000 165.199,260.000 166.176 C 260.000 167.153,260.180 168.064,260.400 168.200 C 260.620 168.336,260.800 169.067,260.800 169.824 C 260.800 170.581,260.980 171.200,261.200 171.200 C 261.747 171.200,261.703 172.246,261.116 173.186 C 260.708 173.839,260.771 174.081,261.516 174.727 C 262.057 175.196,262.400 175.954,262.400 176.680 C 262.400 177.333,262.535 178.001,262.700 178.165 C 262.865 178.329,263.214 179.934,263.475 181.732 C 264.181 186.590,264.409 187.708,264.899 188.708 C 265.222 189.367,265.223 189.737,264.905 190.055 C 264.587 190.373,264.677 190.868,265.233 191.859 C 265.655 192.610,266.000 193.748,266.000 194.389 C 266.000 195.029,266.180 195.664,266.400 195.800 C 266.620 195.936,266.800 196.746,266.800 197.600 C 266.800 198.454,266.980 199.264,267.200 199.400 C 267.420 199.536,267.600 200.447,267.600 201.424 C 267.600 202.401,267.780 203.200,268.000 203.200 C 268.220 203.200,268.400 203.920,268.400 204.800 C 268.400 205.680,268.580 206.400,268.800 206.400 C 269.020 206.400,269.200 207.199,269.200 208.176 C 269.200 209.153,269.380 210.064,269.600 210.200 C 270.537 210.779,269.863 211.200,268.000 211.200 C 266.900 211.200,266.000 211.020,266.000 210.800 C 266.000 210.580,265.100 210.400,264.000 210.400 C 262.900 210.400,262.000 210.220,262.000 210.000 C 262.000 209.780,261.730 209.600,261.400 209.600 C 260.957 209.600,260.800 209.136,260.800 207.824 C 260.800 206.847,260.620 205.936,260.400 205.800 C 260.180 205.664,260.000 204.854,260.000 204.000 C 260.000 203.146,259.820 202.336,259.600 202.200 C 259.380 202.064,259.200 201.243,259.200 200.376 C 259.200 199.509,259.020 198.800,258.800 198.800 C 258.580 198.800,258.400 197.990,258.400 197.000 C 258.400 196.010,258.220 195.200,258.000 195.200 C 257.780 195.200,257.600 194.401,257.600 193.424 C 257.600 192.447,257.420 191.536,257.200 191.400 C 256.980 191.264,256.800 190.533,256.800 189.776 C 256.800 189.019,256.620 188.400,256.400 188.400 C 256.180 188.400,256.000 187.500,256.000 186.400 C 256.000 185.300,255.820 184.400,255.600 184.400 C 255.380 184.400,255.200 183.590,255.200 182.600 C 255.200 181.610,255.046 180.800,254.859 180.800 C 254.671 180.800,254.400 179.413,254.257 177.718 C 254.114 176.023,253.817 174.457,253.598 174.238 C 253.379 174.019,253.200 173.077,253.200 172.144 C 253.200 171.211,253.020 170.336,252.800 170.200 C 252.580 170.064,252.400 169.344,252.400 168.600 C 252.400 167.856,252.220 167.136,252.000 167.000 C 251.780 166.864,251.600 165.953,251.600 164.976 C 251.600 163.999,251.420 163.200,251.200 163.200 C 250.980 163.200,250.800 162.401,250.800 161.424 C 250.800 160.447,250.620 159.536,250.400 159.400 C 250.180 159.264,250.000 158.544,250.000 157.800 C 250.000 157.056,249.820 156.336,249.600 156.200 C 249.127 155.908,249.054 152.400,249.520 152.400 C 249.696 152.400,250.011 152.567,250.220 152.771 M140.000 157.200 C 140.000 157.420,140.900 157.600,142.000 157.600 C 143.100 157.600,144.000 157.780,144.000 158.000 C 144.000 158.220,144.990 158.400,146.200 158.400 C 147.410 158.400,148.400 158.580,148.400 158.800 C 148.400 159.022,149.467 159.200,150.800 159.200 C 152.133 159.200,153.200 159.378,153.200 159.600 C 153.200 159.820,154.179 160.000,155.376 160.000 C 156.573 160.000,157.664 160.180,157.800 160.400 C 157.936 160.620,158.487 160.800,159.024 160.800 C 159.914 160.800,160.000 160.958,160.000 162.600 C 160.000 163.590,159.820 164.400,159.600 164.400 C 159.380 164.400,159.200 165.300,159.200 166.400 C 159.200 167.500,159.020 168.400,158.800 168.400 C 158.580 168.400,158.400 168.220,158.400 168.000 C 158.400 167.780,157.421 167.600,156.224 167.600 C 155.027 167.600,153.936 167.420,153.800 167.200 C 153.664 166.980,152.753 166.800,151.776 166.800 C 150.799 166.800,150.000 166.620,150.000 166.400 C 150.000 166.180,149.021 166.000,147.824 166.000 C 146.627 166.000,145.536 165.820,145.400 165.600 C 145.264 165.380,144.173 165.200,142.976 165.200 C 141.779 165.200,140.800 165.020,140.800 164.800 C 140.800 164.580,139.832 164.400,138.649 164.400 C 136.132 164.400,135.126 163.652,135.924 162.373 C 136.186 161.954,136.400 161.014,136.400 160.285 C 136.400 158.028,137.207 156.807,138.700 156.803 C 139.415 156.801,140.000 156.980,140.000 157.200 M244.427 161.600 C 244.632 161.600,244.800 162.410,244.800 163.400 C 244.800 164.390,244.980 165.200,245.200 165.200 C 245.420 165.200,245.600 165.920,245.600 166.800 C 245.600 167.680,245.780 168.400,246.000 168.400 C 246.651 168.400,246.456 169.654,245.697 170.353 C 245.311 170.709,244.727 171.540,244.400 172.200 C 244.073 172.860,243.489 173.691,243.103 174.047 C 242.716 174.403,242.400 174.948,242.400 175.259 C 242.400 175.569,242.040 176.083,241.600 176.400 C 241.160 176.717,240.800 177.297,240.800 177.688 C 240.800 178.080,240.620 178.400,240.400 178.400 C 240.180 178.400,240.000 178.741,240.000 179.157 C 240.000 179.574,239.721 180.021,239.381 180.152 C 239.041 180.283,238.573 180.932,238.342 181.595 C 238.111 182.258,237.759 182.800,237.561 182.800 C 237.362 182.800,237.200 183.160,237.200 183.600 C 237.200 184.040,237.020 184.400,236.800 184.400 C 236.580 184.400,236.400 184.720,236.400 185.112 C 236.400 185.503,236.040 186.083,235.600 186.400 C 235.160 186.717,234.800 187.254,234.800 187.592 C 234.800 187.931,234.440 188.432,234.000 188.707 C 233.560 188.982,233.200 189.475,233.200 189.803 C 233.200 190.132,233.020 190.400,232.800 190.400 C 232.580 190.400,232.400 190.760,232.400 191.200 C 232.400 191.640,232.233 192.000,232.029 192.000 C 231.825 192.000,231.340 192.720,230.952 193.600 C 230.564 194.480,230.101 195.200,229.923 195.200 C 229.745 195.200,229.600 195.560,229.600 196.000 C 229.600 196.440,229.420 196.800,229.200 196.800 C 228.980 196.800,228.800 197.030,228.800 197.312 C 228.800 197.593,228.440 198.083,228.000 198.400 C 227.560 198.717,227.200 199.257,227.200 199.600 C 227.200 199.943,226.840 200.483,226.400 200.800 C 225.960 201.117,225.600 201.620,225.600 201.917 C 225.600 202.214,225.343 202.714,225.029 203.029 C 224.373 203.684,223.200 203.794,223.200 203.200 C 223.200 202.980,222.210 202.800,221.000 202.800 C 219.790 202.800,218.800 202.620,218.800 202.400 C 218.800 202.180,218.260 202.000,217.600 202.000 C 216.204 202.000,216.075 201.611,217.200 200.800 C 217.640 200.483,218.000 199.943,218.000 199.600 C 218.000 199.257,218.360 198.717,218.800 198.400 C 219.240 198.083,219.600 197.503,219.600 197.112 C 219.600 196.720,219.760 196.400,219.957 196.400 C 220.153 196.400,220.426 195.950,220.564 195.400 C 220.702 194.850,220.992 194.400,221.208 194.400 C 221.423 194.400,221.600 194.080,221.600 193.688 C 221.600 193.297,221.960 192.717,222.400 192.400 C 222.840 192.083,223.200 191.543,223.200 191.200 C 223.200 190.857,223.560 190.317,224.000 190.000 C 224.440 189.683,224.800 189.103,224.800 188.712 C 224.800 188.320,224.980 188.000,225.200 188.000 C 225.420 188.000,225.600 187.812,225.600 187.583 C 225.600 187.354,225.960 186.780,226.400 186.308 C 226.840 185.836,227.200 185.213,227.200 184.925 C 227.200 184.636,227.367 184.400,227.571 184.400 C 227.775 184.400,228.260 183.680,228.648 182.800 C 229.036 181.920,229.499 181.200,229.677 181.200 C 229.855 181.200,230.000 180.883,230.000 180.496 C 230.000 180.109,230.360 179.568,230.800 179.293 C 231.240 179.018,231.600 178.525,231.600 178.197 C 231.600 177.868,231.780 177.600,232.000 177.600 C 232.220 177.600,232.400 177.280,232.400 176.888 C 232.400 176.497,232.760 175.917,233.200 175.600 C 233.640 175.283,234.000 174.743,234.000 174.400 C 234.000 174.057,234.360 173.517,234.800 173.200 C 235.240 172.883,235.600 172.322,235.600 171.954 C 235.600 171.587,235.879 171.179,236.219 171.048 C 236.559 170.917,237.027 170.268,237.258 169.605 C 237.489 168.942,237.841 168.400,238.039 168.400 C 238.238 168.400,238.400 168.040,238.400 167.600 C 238.400 167.160,238.580 166.800,238.800 166.800 C 239.020 166.800,239.200 166.480,239.200 166.088 C 239.200 165.697,239.560 165.117,240.000 164.800 C 240.440 164.483,240.800 163.946,240.800 163.608 C 240.800 163.269,241.160 162.768,241.600 162.493 C 242.040 162.218,242.400 161.817,242.400 161.601 C 242.400 161.386,242.715 160.838,243.100 160.385 L 243.800 159.561 243.927 160.581 C 243.996 161.141,244.221 161.600,244.427 161.600 M293.600 160.400 C 293.600 160.620,294.421 160.800,295.424 160.800 L 297.248 160.800 296.968 163.700 C 296.814 165.295,296.533 166.660,296.344 166.733 C 296.155 166.807,296.000 167.932,296.000 169.233 C 296.000 170.544,295.822 171.600,295.600 171.600 C 295.380 171.600,295.200 172.590,295.200 173.800 C 295.200 175.010,295.020 176.000,294.800 176.000 C 294.580 176.000,294.400 176.900,294.400 178.000 C 294.400 179.100,294.220 180.000,294.000 180.000 C 293.780 180.000,293.600 180.990,293.600 182.200 C 293.600 183.410,293.420 184.400,293.200 184.400 C 292.980 184.400,292.800 185.379,292.800 186.576 C 292.800 187.773,292.620 188.864,292.400 189.000 C 292.180 189.136,292.000 190.047,292.000 191.024 C 292.000 192.001,291.820 192.800,291.600 192.800 C 291.380 192.800,291.200 193.779,291.200 194.976 C 291.200 196.173,291.020 197.264,290.800 197.400 C 290.580 197.536,290.400 198.627,290.400 199.824 C 290.400 201.021,290.220 202.000,290.000 202.000 C 289.780 202.000,289.600 202.990,289.600 204.200 C 289.600 205.410,289.437 206.400,289.238 206.400 C 289.040 206.400,288.743 208.335,288.578 210.700 C 288.414 213.065,288.201 214.775,288.106 214.500 C 288.011 214.225,287.345 214.000,286.625 214.000 C 285.906 214.000,284.211 213.884,282.859 213.743 L 280.400 213.486 280.400 211.943 C 280.400 211.094,280.580 210.400,280.800 210.400 C 281.022 210.400,281.200 209.333,281.200 208.000 C 281.200 206.667,281.378 205.600,281.600 205.600 C 281.820 205.600,282.000 204.610,282.000 203.400 C 282.000 202.190,282.180 201.200,282.400 201.200 C 282.622 201.200,282.800 200.133,282.800 198.800 C 282.800 197.467,282.978 196.400,283.200 196.400 C 283.420 196.400,283.600 195.590,283.600 194.600 C 283.600 193.610,283.780 192.800,284.000 192.800 C 284.222 192.800,284.400 191.733,284.400 190.400 C 284.400 189.067,284.578 188.000,284.800 188.000 C 285.020 188.000,285.200 187.190,285.200 186.200 C 285.200 185.210,285.380 184.400,285.600 184.400 C 285.822 184.400,286.000 183.333,286.000 182.000 C 286.000 180.667,286.178 179.600,286.400 179.600 C 286.620 179.600,286.800 178.621,286.800 177.424 C 286.800 176.227,286.966 175.145,287.168 175.020 C 287.371 174.894,287.664 172.994,287.820 170.796 C 287.976 168.598,288.260 166.800,288.452 166.800 C 288.643 166.800,288.800 165.810,288.800 164.600 C 288.800 163.390,288.980 162.400,289.200 162.400 C 289.420 162.400,289.600 161.860,289.600 161.200 C 289.600 160.027,289.644 160.000,291.600 160.000 C 292.700 160.000,293.600 160.180,293.600 160.400 M98.000 164.240 C 98.000 164.962,98.180 165.664,98.400 165.800 C 98.620 165.936,98.800 166.847,98.800 167.824 C 98.800 168.870,98.984 169.600,99.249 169.600 C 99.541 169.600,99.506 169.833,99.149 170.265 C 98.721 170.784,98.710 170.967,99.100 171.098 C 99.375 171.191,99.600 171.871,99.600 172.610 C 99.600 173.348,99.780 174.064,100.000 174.200 C 100.220 174.336,100.400 175.247,100.400 176.224 C 100.400 177.201,100.580 178.000,100.800 178.000 C 101.020 178.000,101.200 178.737,101.200 179.637 L 101.200 181.274 99.100 181.055 C 94.411 180.566,93.600 180.349,93.600 179.582 C 93.600 179.178,93.420 178.736,93.200 178.600 C 92.980 178.464,92.800 177.463,92.800 176.376 C 92.800 175.289,92.620 174.400,92.400 174.400 C 92.180 174.400,92.000 173.410,92.000 172.200 C 92.000 170.990,91.820 170.000,91.600 170.000 C 91.380 170.000,91.200 169.021,91.200 167.824 C 91.200 166.627,91.020 165.536,90.800 165.400 C 90.580 165.264,90.400 164.487,90.400 163.672 L 90.400 162.192 94.200 162.560 L 98.000 162.927 98.000 164.240 M311.200 163.200 C 311.200 163.420,311.999 163.600,312.976 163.600 C 313.953 163.600,314.864 163.780,315.000 164.000 C 315.136 164.220,315.687 164.400,316.224 164.400 C 317.096 164.400,317.200 164.570,317.200 166.000 C 317.200 166.880,317.020 167.600,316.800 167.600 C 316.580 167.600,316.400 168.104,316.400 168.720 C 316.400 169.336,316.177 170.063,315.903 170.337 C 315.508 170.732,315.528 170.910,316.003 171.211 C 316.402 171.462,316.434 171.590,316.100 171.594 C 315.764 171.598,315.600 172.294,315.600 173.720 C 315.600 174.886,315.437 176.011,315.239 176.220 C 314.867 176.612,314.768 177.220,313.907 184.469 C 313.628 186.817,313.265 188.872,313.100 189.036 C 312.935 189.199,312.800 190.113,312.800 191.067 C 312.800 192.020,312.620 192.800,312.400 192.800 C 312.178 192.800,312.000 193.867,312.000 195.200 C 312.000 196.533,311.822 197.600,311.600 197.600 C 311.380 197.600,311.200 198.590,311.200 199.800 C 311.200 201.010,311.020 202.000,310.800 202.000 C 310.580 202.000,310.400 202.900,310.400 204.000 C 310.400 205.100,310.220 206.000,310.000 206.000 C 309.780 206.000,309.600 206.990,309.600 208.200 C 309.600 209.410,309.420 210.400,309.200 210.400 C 308.980 210.400,308.800 211.379,308.800 212.576 C 308.800 213.773,308.620 214.864,308.400 215.000 C 308.180 215.136,308.000 215.867,308.000 216.624 C 308.000 217.886,307.901 218.000,306.800 218.000 C 306.140 218.000,305.600 217.820,305.600 217.600 C 305.600 217.380,304.646 217.200,303.480 217.200 C 302.314 217.200,301.144 216.984,300.880 216.720 C 300.300 216.140,300.237 214.000,300.800 214.000 C 301.020 214.000,301.200 213.021,301.200 211.824 C 301.200 210.627,301.380 209.536,301.600 209.400 C 301.820 209.264,302.000 208.364,302.000 207.400 C 302.000 206.436,302.180 205.536,302.400 205.400 C 302.620 205.264,302.800 204.274,302.800 203.200 C 302.800 202.126,302.957 201.150,303.148 201.032 C 303.339 200.914,303.624 199.013,303.780 196.809 C 303.936 194.604,304.230 192.800,304.432 192.800 C 304.634 192.800,304.800 191.720,304.800 190.400 C 304.800 189.067,304.978 188.000,305.200 188.000 C 305.420 188.000,305.600 187.010,305.600 185.800 C 305.600 184.590,305.780 183.600,306.000 183.600 C 306.220 183.600,306.400 182.700,306.400 181.600 C 306.400 180.500,306.580 179.600,306.800 179.600 C 307.020 179.600,307.200 178.621,307.200 177.424 C 307.200 176.227,307.380 175.136,307.600 175.000 C 307.820 174.864,308.000 173.953,308.000 172.976 C 308.000 171.999,308.180 171.200,308.400 171.200 C 308.620 171.200,308.800 170.221,308.800 169.024 C 308.800 167.827,308.980 166.736,309.200 166.600 C 309.420 166.464,309.600 165.553,309.600 164.576 C 309.600 163.067,309.720 162.800,310.400 162.800 C 310.840 162.800,311.200 162.980,311.200 163.200 M324.000 165.600 C 324.000 165.820,324.900 166.000,326.000 166.000 C 327.100 166.000,328.000 166.180,328.000 166.400 C 328.000 166.620,328.990 166.800,330.200 166.800 C 331.410 166.800,332.400 166.980,332.400 167.200 C 332.400 167.422,333.467 167.600,334.800 167.600 C 336.133 167.600,337.200 167.778,337.200 168.000 C 337.200 168.220,337.819 168.400,338.576 168.400 C 339.333 168.400,340.064 168.580,340.200 168.800 C 340.336 169.020,340.876 169.200,341.400 169.200 C 341.924 169.200,342.464 169.380,342.600 169.600 C 342.736 169.820,343.287 170.000,343.824 170.000 C 344.361 170.000,344.800 170.180,344.800 170.400 C 344.800 170.620,345.135 170.800,345.544 170.800 C 345.953 170.800,346.626 171.250,347.039 171.800 C 347.452 172.350,348.107 172.800,348.495 172.800 C 348.883 172.800,349.200 173.088,349.200 173.440 C 349.200 173.791,349.740 174.583,350.400 175.200 C 351.060 175.817,351.600 176.688,351.600 177.137 C 351.600 177.586,351.780 178.064,352.000 178.200 C 352.232 178.343,352.400 180.537,352.400 183.424 C 352.400 186.475,352.245 188.400,352.000 188.400 C 351.780 188.400,351.600 189.030,351.600 189.800 C 351.600 190.570,351.420 191.200,351.200 191.200 C 350.980 191.200,350.800 191.560,350.800 192.000 C 350.800 192.440,350.620 192.800,350.400 192.800 C 350.180 192.800,350.000 193.120,350.000 193.512 C 350.000 193.903,349.640 194.483,349.200 194.800 C 348.760 195.117,348.400 195.685,348.400 196.061 C 348.400 196.438,347.995 196.874,347.500 197.030 C 347.005 197.187,346.309 197.649,345.953 198.057 C 345.597 198.466,345.012 198.800,344.653 198.800 C 344.294 198.800,344.000 198.980,344.000 199.200 C 344.000 199.420,343.280 199.600,342.400 199.600 C 341.520 199.600,340.800 199.780,340.800 200.000 C 340.800 200.231,339.533 200.400,337.800 200.400 C 336.067 200.400,334.800 200.231,334.800 200.000 C 334.800 199.778,333.733 199.600,332.400 199.600 C 331.067 199.600,330.000 199.422,330.000 199.200 C 330.000 198.980,329.010 198.800,327.800 198.800 C 326.590 198.800,325.600 198.620,325.600 198.400 C 325.600 198.178,324.533 198.000,323.200 198.000 C 321.867 198.000,320.800 197.822,320.800 197.600 C 320.800 197.380,320.170 197.200,319.400 197.200 L 318.000 197.200 318.000 195.000 C 318.000 193.790,318.180 192.800,318.400 192.800 C 318.620 192.800,318.800 192.080,318.800 191.200 C 318.800 190.320,318.980 189.600,319.200 189.600 C 319.420 189.600,319.600 189.780,319.600 190.000 C 319.600 190.220,320.410 190.400,321.400 190.400 C 322.390 190.400,323.200 190.580,323.200 190.800 C 323.200 191.022,324.267 191.200,325.600 191.200 C 326.933 191.200,328.000 191.378,328.000 191.600 C 328.000 191.820,328.990 192.000,330.200 192.000 C 331.410 192.000,332.400 192.180,332.400 192.400 C 332.400 192.635,333.800 192.800,335.800 192.800 C 337.800 192.800,339.200 192.635,339.200 192.400 C 339.200 192.180,339.658 192.000,340.218 192.000 C 341.341 192.000,343.200 190.390,343.200 189.418 C 343.200 189.078,343.380 188.800,343.600 188.800 C 343.820 188.800,344.000 188.361,344.000 187.824 C 344.000 187.287,344.180 186.736,344.400 186.600 C 344.973 186.246,344.895 181.354,344.300 180.320 C 343.491 178.914,341.277 176.800,340.613 176.800 C 340.276 176.800,340.000 176.620,340.000 176.400 C 340.000 176.180,339.640 176.000,339.200 176.000 C 338.760 176.000,338.400 175.820,338.400 175.600 C 338.400 175.380,337.590 175.200,336.600 175.200 C 335.610 175.200,334.800 175.020,334.800 174.800 C 334.800 174.578,333.733 174.400,332.400 174.400 C 331.067 174.400,330.000 174.222,330.000 174.000 C 330.000 173.780,329.201 173.600,328.224 173.600 C 327.247 173.600,326.336 173.420,326.200 173.200 C 326.064 172.980,324.973 172.800,323.776 172.800 C 321.722 172.800,321.600 172.744,321.600 171.800 C 321.600 171.250,321.780 170.800,322.000 170.800 C 322.220 170.800,322.400 169.900,322.400 168.800 C 322.400 167.700,322.580 166.800,322.800 166.800 C 323.020 166.800,323.200 166.440,323.200 166.000 C 323.200 165.560,323.380 165.200,323.600 165.200 C 323.820 165.200,324.000 165.380,324.000 165.600 M135.600 180.000 C 135.600 180.220,136.590 180.400,137.800 180.400 C 139.010 180.400,140.000 180.580,140.000 180.800 C 140.000 181.022,141.067 181.200,142.400 181.200 C 143.733 181.200,144.800 181.378,144.800 181.600 C 144.800 181.820,145.790 182.000,147.000 182.000 C 148.210 182.000,149.200 182.180,149.200 182.400 C 149.200 182.620,150.100 182.800,151.200 182.800 C 152.300 182.800,153.200 182.980,153.200 183.200 C 153.200 183.420,154.190 183.600,155.400 183.600 C 156.610 183.600,157.600 183.780,157.600 184.000 C 157.600 184.220,158.320 184.400,159.200 184.400 C 160.080 184.400,160.800 184.580,160.800 184.800 C 160.800 185.020,160.620 185.200,160.400 185.200 C 160.180 185.200,160.000 185.999,160.000 186.976 C 160.000 187.953,159.820 188.864,159.600 189.000 C 159.380 189.136,159.200 189.687,159.200 190.224 C 159.200 191.150,159.078 191.200,156.800 191.200 C 155.467 191.200,154.400 191.022,154.400 190.800 C 154.400 190.580,153.410 190.400,152.200 190.400 C 150.990 190.400,150.000 190.220,150.000 190.000 C 150.000 189.780,149.021 189.600,147.824 189.600 C 146.627 189.600,145.550 189.443,145.432 189.252 C 145.314 189.061,143.413 188.776,141.209 188.620 C 139.004 188.464,137.200 188.170,137.200 187.968 C 137.200 187.766,135.940 187.600,134.400 187.600 L 131.600 187.600 131.600 186.000 C 131.600 185.120,131.780 184.400,132.000 184.400 C 132.222 184.400,132.400 183.333,132.400 182.000 L 132.400 179.600 134.000 179.600 C 134.880 179.600,135.600 179.780,135.600 180.000 M248.400 188.376 C 248.400 189.683,248.580 190.864,248.800 191.000 C 249.020 191.136,249.200 192.392,249.200 193.790 C 249.200 195.450,249.374 196.403,249.700 196.535 C 249.975 196.646,249.795 196.751,249.300 196.768 C 248.805 196.786,248.400 196.620,248.400 196.400 C 248.400 196.180,247.421 196.000,246.224 196.000 C 245.027 196.000,243.936 195.820,243.800 195.600 C 243.664 195.380,242.860 195.200,242.014 195.200 C 240.672 195.200,240.502 195.098,240.684 194.400 C 240.799 193.960,241.052 193.600,241.247 193.600 C 241.441 193.600,241.600 193.240,241.600 192.800 C 241.600 192.360,241.780 192.000,242.000 192.000 C 242.220 192.000,242.400 191.722,242.400 191.383 C 242.400 191.044,242.760 190.380,243.200 189.908 C 243.640 189.436,244.000 188.813,244.000 188.525 C 244.000 188.236,244.180 188.000,244.400 188.000 C 244.620 188.000,244.800 187.655,244.800 187.233 C 244.800 186.340,245.307 186.075,247.100 186.032 L 248.400 186.000 248.400 188.376 M121.200 199.200 C 121.200 199.420,122.010 199.600,123.000 199.600 C 123.990 199.600,124.800 199.780,124.800 200.000 C 124.800 200.220,125.520 200.400,126.400 200.400 C 127.280 200.400,128.000 200.580,128.000 200.800 C 128.000 201.020,128.360 201.200,128.800 201.200 C 129.240 201.200,129.600 201.336,129.600 201.502 C 129.600 201.669,130.185 202.063,130.900 202.378 C 131.615 202.693,132.438 203.187,132.729 203.475 C 133.019 203.764,133.520 204.000,133.842 204.000 C 134.616 204.000,137.200 206.606,137.200 207.387 C 137.200 207.724,137.345 208.000,137.523 208.000 C 137.927 208.000,139.200 210.836,139.200 211.734 C 139.200 212.100,139.380 212.400,139.600 212.400 C 139.840 212.400,140.000 214.000,140.000 216.400 L 140.000 220.400 138.200 220.400 C 137.210 220.400,136.400 220.220,136.400 220.000 C 136.400 219.780,135.500 219.600,134.400 219.600 L 132.400 219.600 132.400 216.600 C 132.400 214.867,132.231 213.600,132.000 213.600 C 131.780 213.600,131.600 213.240,131.600 212.800 C 131.600 212.360,131.420 212.000,131.200 212.000 C 130.980 212.000,130.800 211.722,130.800 211.382 C 130.800 210.737,129.080 208.800,128.506 208.800 C 128.325 208.800,127.917 208.440,127.600 208.000 C 127.283 207.560,126.703 207.200,126.312 207.200 C 125.920 207.200,125.600 207.020,125.600 206.800 C 125.600 206.580,124.880 206.400,124.000 206.400 C 123.120 206.400,122.400 206.220,122.400 206.000 C 122.400 205.758,120.667 205.600,118.000 205.600 C 115.333 205.600,113.600 205.758,113.600 206.000 C 113.600 206.220,113.147 206.400,112.593 206.400 C 111.481 206.400,106.400 211.125,106.400 212.159 C 106.400 212.475,106.208 212.797,105.974 212.875 C 105.740 212.953,105.446 213.778,105.322 214.709 C 105.197 215.639,104.938 216.400,104.747 216.400 C 104.556 216.400,104.400 217.043,104.400 217.829 C 104.400 218.614,104.143 219.514,103.829 219.829 C 103.173 220.484,102.000 220.594,102.000 220.000 C 102.000 219.780,101.100 219.600,100.000 219.600 C 98.900 219.600,98.000 219.420,98.000 219.200 C 98.000 218.980,97.572 218.800,97.049 218.800 C 96.078 218.800,95.905 215.238,96.857 214.867 C 97.046 214.793,97.200 214.208,97.200 213.567 C 97.200 212.925,97.380 212.400,97.600 212.400 C 97.820 212.400,98.000 211.950,98.000 211.400 C 98.000 210.850,98.180 210.400,98.400 210.400 C 98.620 210.400,98.800 210.080,98.800 209.688 C 98.800 209.297,99.160 208.717,99.600 208.400 C 100.040 208.083,100.400 207.590,100.400 207.304 C 100.400 206.588,105.077 202.000,105.807 202.000 C 106.133 202.000,106.400 201.820,106.400 201.600 C 106.400 201.380,106.760 201.200,107.200 201.200 C 107.640 201.200,108.000 201.020,108.000 200.800 C 108.000 200.580,108.360 200.400,108.800 200.400 C 109.240 200.400,109.600 200.220,109.600 200.000 C 109.600 199.780,110.230 199.600,111.000 199.600 C 111.770 199.600,112.400 199.420,112.400 199.200 C 112.400 198.958,114.133 198.800,116.800 198.800 C 119.467 198.800,121.200 198.958,121.200 199.200 M332.400 204.400 C 332.400 204.620,333.120 204.800,334.000 204.800 C 335.333 204.800,335.600 204.933,335.600 205.600 C 335.600 206.040,335.780 206.400,336.000 206.400 C 336.220 206.400,336.400 207.300,336.400 208.400 C 336.400 209.500,336.580 210.400,336.800 210.400 C 337.020 210.400,337.200 211.375,337.200 212.567 C 337.200 213.758,337.359 214.793,337.554 214.867 C 337.749 214.940,338.039 216.845,338.197 219.100 L 338.486 223.200 337.449 223.200 C 336.878 223.200,335.644 223.023,334.706 222.806 C 333.768 222.590,332.505 222.316,331.900 222.199 C 330.994 222.022,330.800 221.775,330.800 220.792 C 330.800 220.137,330.620 219.600,330.400 219.600 C 330.180 219.600,330.000 218.640,330.000 217.467 C 330.000 216.293,329.865 215.200,329.700 215.037 C 329.535 214.874,329.170 212.999,328.889 210.871 C 328.607 208.742,328.273 206.325,328.147 205.500 L 327.916 204.000 330.158 204.000 C 331.391 204.000,332.400 204.180,332.400 204.400 M173.800 208.400 C 173.936 208.620,174.847 208.800,175.824 208.800 C 177.587 208.800,177.600 208.810,177.600 210.200 C 177.600 210.970,177.780 211.600,178.000 211.600 C 178.220 211.600,178.400 212.500,178.400 213.600 C 178.400 214.700,178.580 215.600,178.800 215.600 C 179.020 215.600,179.200 216.320,179.200 217.200 C 179.200 218.080,179.354 218.800,179.543 218.800 C 179.731 218.800,180.003 220.063,180.146 221.607 C 180.426 224.616,181.075 227.767,181.647 228.895 C 181.841 229.277,182.000 230.301,182.000 231.171 C 182.000 232.041,182.180 232.864,182.400 233.000 C 182.620 233.136,182.800 234.047,182.800 235.024 C 182.800 236.001,182.980 236.800,183.200 236.800 C 183.420 236.800,183.600 237.520,183.600 238.400 C 183.600 239.280,183.780 240.000,184.000 240.000 C 184.220 240.000,184.400 240.799,184.400 241.776 C 184.400 242.753,184.580 243.664,184.800 243.800 C 185.020 243.936,185.200 244.667,185.200 245.424 C 185.200 246.181,185.380 246.800,185.600 246.800 C 185.820 246.800,186.000 247.700,186.000 248.800 C 186.000 249.900,186.180 250.800,186.400 250.800 C 186.620 250.800,186.800 251.610,186.800 252.600 C 186.800 253.590,186.980 254.400,187.200 254.400 C 187.420 254.400,187.600 255.300,187.600 256.400 C 187.600 257.500,187.748 258.400,187.928 258.400 C 188.109 258.400,188.438 259.795,188.660 261.500 C 188.883 263.205,189.204 264.915,189.375 265.300 C 189.727 266.093,186.683 266.381,186.200 265.600 C 186.064 265.380,185.120 265.200,184.102 265.200 C 181.573 265.200,180.400 264.101,180.400 261.730 C 180.400 260.779,180.252 260.000,180.070 260.000 C 179.889 260.000,179.526 258.335,179.264 256.300 C 178.532 250.609,178.344 249.613,177.958 249.374 C 177.761 249.252,177.600 248.454,177.600 247.600 C 177.600 246.746,177.420 245.936,177.200 245.800 C 176.980 245.664,176.800 244.764,176.800 243.800 C 176.800 242.836,176.620 241.936,176.400 241.800 C 176.180 241.664,176.000 240.753,176.000 239.776 C 176.000 238.799,175.820 238.000,175.600 238.000 C 175.380 238.000,175.200 237.280,175.200 236.400 C 175.200 235.520,175.020 234.800,174.800 234.800 C 174.580 234.800,174.400 233.990,174.400 233.000 C 174.400 232.010,174.220 231.200,174.000 231.200 C 173.780 231.200,173.600 230.300,173.600 229.200 C 173.600 228.100,173.420 227.200,173.200 227.200 C 172.980 227.200,172.800 226.480,172.800 225.600 C 172.800 224.720,172.620 224.000,172.400 224.000 C 172.180 224.000,172.000 223.190,172.000 222.200 C 172.000 221.210,171.846 220.400,171.659 220.400 C 171.471 220.400,171.200 219.013,171.057 217.318 C 170.914 215.623,170.617 214.057,170.398 213.838 C 170.179 213.619,170.000 212.677,170.000 211.744 C 170.000 210.811,169.820 209.936,169.600 209.800 C 169.380 209.664,169.200 209.203,169.200 208.776 C 169.200 207.915,173.293 207.580,173.800 208.400 M208.800 214.400 C 208.800 214.620,209.700 214.800,210.800 214.800 C 211.900 214.800,212.800 214.980,212.800 215.200 C 212.800 215.420,213.250 215.600,213.800 215.600 C 214.791 215.600,215.141 216.142,214.432 216.580 C 214.229 216.706,213.936 218.606,213.780 220.804 C 213.624 223.002,213.340 224.800,213.148 224.800 C 212.957 224.800,212.800 225.700,212.800 226.800 C 212.800 227.900,212.620 228.800,212.400 228.800 C 212.180 228.800,212.000 229.790,212.000 231.000 C 212.000 232.210,211.820 233.200,211.600 233.200 C 211.378 233.200,211.200 234.267,211.200 235.600 C 211.200 236.933,211.022 238.000,210.800 238.000 C 210.580 238.000,210.400 238.990,210.400 240.200 C 210.400 241.410,210.220 242.400,210.000 242.400 C 209.780 242.400,209.600 243.300,209.600 244.400 C 209.600 245.500,209.420 246.400,209.200 246.400 C 208.980 246.400,208.800 247.390,208.800 248.600 C 208.800 249.810,208.620 250.800,208.400 250.800 C 208.180 250.800,208.000 251.779,208.000 252.976 C 208.000 254.173,207.820 255.264,207.600 255.400 C 207.380 255.536,207.200 256.447,207.200 257.424 C 207.200 258.401,207.020 259.200,206.800 259.200 C 206.580 259.200,206.400 260.179,206.400 261.376 C 206.400 262.573,206.220 263.664,206.000 263.800 C 205.780 263.936,205.600 264.922,205.600 265.991 C 205.600 267.060,205.491 268.219,205.357 268.567 C 205.092 269.258,204.000 269.446,204.000 268.800 C 204.000 268.580,203.010 268.400,201.800 268.400 C 200.590 268.400,199.600 268.220,199.600 268.000 C 199.600 267.780,199.240 267.600,198.800 267.600 C 198.107 267.600,198.000 267.333,198.000 265.600 C 198.000 264.500,198.180 263.600,198.400 263.600 C 198.620 263.600,198.800 262.790,198.800 261.800 C 198.800 260.810,198.980 260.000,199.200 260.000 C 199.422 260.000,199.600 258.933,199.600 257.600 C 199.600 256.267,199.778 255.200,200.000 255.200 C 200.220 255.200,200.400 254.210,200.400 253.000 C 200.400 251.790,200.580 250.800,200.800 250.800 C 201.020 250.800,201.200 249.900,201.200 248.800 C 201.200 247.700,201.380 246.800,201.600 246.800 C 201.820 246.800,202.000 245.810,202.000 244.600 C 202.000 243.390,202.180 242.400,202.400 242.400 C 202.622 242.400,202.800 241.344,202.800 240.033 C 202.800 238.732,202.970 237.607,203.177 237.533 C 203.385 237.460,203.680 235.555,203.834 233.300 C 203.988 231.045,204.269 229.200,204.457 229.200 C 204.646 229.200,204.800 228.210,204.800 227.000 C 204.800 225.790,204.980 224.800,205.200 224.800 C 205.420 224.800,205.600 223.900,205.600 222.800 C 205.600 221.700,205.780 220.800,206.000 220.800 C 206.220 220.800,206.400 219.810,206.400 218.600 C 206.400 217.390,206.580 216.400,206.800 216.400 C 207.020 216.400,207.200 215.860,207.200 215.200 C 207.200 214.267,207.378 214.000,208.000 214.000 C 208.440 214.000,208.800 214.180,208.800 214.400 M164.400 216.200 C 164.400 216.944,164.580 217.664,164.800 217.800 C 165.020 217.936,165.200 218.847,165.200 219.824 C 165.200 220.801,165.380 221.600,165.600 221.600 C 166.403 221.600,166.059 225.381,165.200 226.000 C 164.760 226.317,164.400 226.897,164.400 227.288 C 164.400 227.680,164.220 228.000,164.000 228.000 C 163.780 228.000,163.600 228.347,163.600 228.771 C 163.600 229.196,163.330 229.813,163.000 230.143 C 162.670 230.473,162.400 230.936,162.400 231.171 C 162.400 231.407,162.220 231.600,162.000 231.600 C 161.780 231.600,161.600 231.920,161.600 232.312 C 161.600 232.703,161.240 233.283,160.800 233.600 C 160.360 233.917,160.000 234.457,160.000 234.800 C 160.000 235.143,159.640 235.683,159.200 236.000 C 158.760 236.317,158.400 236.897,158.400 237.288 C 158.400 237.680,158.220 238.000,158.000 238.000 C 157.780 238.000,157.600 238.270,157.600 238.600 C 157.600 238.930,157.450 239.200,157.268 239.200 C 157.085 239.200,156.680 239.695,156.368 240.300 C 156.055 240.905,155.575 241.638,155.300 241.929 C 155.025 242.219,154.800 242.804,154.800 243.229 C 154.800 243.653,154.620 244.000,154.400 244.000 C 154.180 244.000,154.000 244.320,154.000 244.712 C 154.000 245.103,153.640 245.683,153.200 246.000 C 152.760 246.317,152.400 246.767,152.400 247.000 C 152.400 247.233,152.040 247.683,151.600 248.000 C 151.160 248.317,150.800 248.897,150.800 249.288 C 150.800 249.680,150.620 250.000,150.400 250.000 C 150.180 250.000,150.000 250.320,150.000 250.712 C 150.000 251.103,149.640 251.683,149.200 252.000 C 148.760 252.317,148.400 252.857,148.400 253.200 C 148.400 253.543,148.047 254.078,147.615 254.389 C 147.183 254.701,146.711 255.495,146.566 256.155 C 146.163 257.990,143.200 259.614,143.200 258.000 C 143.200 257.778,142.133 257.600,140.800 257.600 C 139.467 257.600,138.400 257.422,138.400 257.200 C 138.400 256.980,138.130 256.800,137.800 256.800 C 137.470 256.800,137.200 256.633,137.200 256.429 C 137.200 256.224,137.470 255.787,137.800 255.457 C 138.130 255.127,138.400 254.704,138.400 254.517 C 138.400 254.330,138.760 253.917,139.200 253.600 C 139.640 253.283,140.000 252.703,140.000 252.312 C 140.000 251.920,140.180 251.600,140.400 251.600 C 140.620 251.600,140.800 251.280,140.800 250.888 C 140.800 250.497,141.160 249.917,141.600 249.600 C 142.040 249.283,142.400 248.743,142.400 248.400 C 142.400 248.057,142.760 247.517,143.200 247.200 C 143.640 246.883,144.000 246.476,144.000 246.295 C 144.000 246.114,144.351 245.590,144.780 245.129 C 145.209 244.669,145.683 243.731,145.834 243.046 C 145.984 242.361,146.443 241.509,146.854 241.153 C 147.264 240.797,147.600 240.252,147.600 239.941 C 147.600 239.631,147.960 239.117,148.400 238.800 C 148.840 238.483,149.200 238.033,149.200 237.800 C 149.200 237.567,149.560 237.117,150.000 236.800 C 150.440 236.483,150.800 235.903,150.800 235.512 C 150.800 235.120,150.980 234.800,151.200 234.800 C 151.420 234.800,151.600 234.480,151.600 234.088 C 151.600 233.697,151.960 233.117,152.400 232.800 C 152.840 232.483,153.200 231.903,153.200 231.512 C 153.200 231.120,153.368 230.800,153.573 230.800 C 153.778 230.800,154.074 230.395,154.230 229.900 C 154.387 229.405,154.849 228.709,155.257 228.353 C 155.666 227.997,156.000 227.412,156.000 227.053 C 156.000 226.694,156.180 226.400,156.400 226.400 C 156.620 226.400,156.800 226.080,156.800 225.688 C 156.800 225.297,157.160 224.717,157.600 224.400 C 158.040 224.083,158.400 223.543,158.400 223.200 C 158.400 222.857,158.760 222.317,159.200 222.000 C 159.640 221.683,160.000 221.193,160.000 220.912 C 160.000 220.630,160.165 220.400,160.366 220.400 C 160.567 220.400,161.242 219.320,161.865 218.000 C 162.489 216.680,163.134 215.600,163.299 215.600 C 163.465 215.600,163.600 215.319,163.600 214.976 C 163.600 214.633,163.780 214.464,164.000 214.600 C 164.220 214.736,164.400 215.456,164.400 216.200 M221.200 216.800 C 221.200 217.020,222.179 217.200,223.376 217.200 C 224.573 217.200,225.664 217.380,225.800 217.600 C 225.936 217.820,226.847 218.000,227.824 218.000 C 228.801 218.000,229.600 218.180,229.600 218.400 C 229.600 218.620,230.399 218.800,231.376 218.800 C 232.353 218.800,233.264 218.980,233.400 219.200 C 233.536 219.420,234.728 219.600,236.050 219.600 C 237.371 219.600,238.785 219.778,239.190 219.995 C 239.596 220.212,241.459 220.507,243.329 220.651 L 246.731 220.913 246.505 223.156 C 246.381 224.390,246.127 225.460,245.940 225.533 C 245.753 225.607,245.600 226.372,245.600 227.233 C 245.600 228.809,243.762 229.633,243.000 228.400 C 242.864 228.180,241.773 228.000,240.576 228.000 C 239.379 228.000,238.400 227.820,238.400 227.600 C 238.400 227.380,237.410 227.200,236.200 227.200 C 234.990 227.200,234.000 227.020,234.000 226.800 C 234.000 226.580,233.100 226.400,232.000 226.400 C 230.900 226.400,230.000 226.220,230.000 226.000 C 230.000 225.780,229.021 225.600,227.824 225.600 C 226.627 225.600,225.536 225.420,225.400 225.200 C 225.264 224.980,224.353 224.800,223.376 224.800 C 222.399 224.800,221.600 224.620,221.600 224.400 C 221.600 224.180,221.101 224.000,220.491 224.000 L 219.382 224.000 219.668 221.500 C 220.072 217.971,220.435 216.400,220.845 216.400 C 221.040 216.400,221.200 216.580,221.200 216.800 M256.200 222.800 C 256.336 223.020,257.427 223.200,258.624 223.200 C 259.821 223.200,260.800 223.380,260.800 223.600 C 260.800 223.820,261.340 224.000,262.000 224.000 C 262.660 224.000,263.200 224.180,263.200 224.400 C 263.200 224.620,263.020 224.800,262.800 224.800 C 262.580 224.800,262.400 225.700,262.400 226.800 C 262.400 227.900,262.220 228.800,262.000 228.800 C 261.780 228.800,261.600 229.790,261.600 231.000 C 261.600 232.210,261.420 233.200,261.200 233.200 C 260.978 233.200,260.800 234.267,260.800 235.600 C 260.800 236.933,260.622 238.000,260.400 238.000 C 260.180 238.000,260.000 238.810,260.000 239.800 C 260.000 240.790,259.820 241.600,259.600 241.600 C 259.378 241.600,259.200 242.667,259.200 244.000 C 259.200 245.333,259.022 246.400,258.800 246.400 C 258.580 246.400,258.400 247.390,258.400 248.600 C 258.400 249.810,258.220 250.800,258.000 250.800 C 257.780 250.800,257.600 251.700,257.600 252.800 C 257.600 253.900,257.420 254.800,257.200 254.800 C 256.980 254.800,256.800 255.779,256.800 256.976 C 256.800 258.173,256.620 259.264,256.400 259.400 C 256.180 259.536,256.000 260.447,256.000 261.424 C 256.000 262.401,255.840 263.200,255.644 263.200 C 255.448 263.200,255.158 265.180,255.000 267.600 C 254.842 270.020,254.552 272.000,254.356 272.000 C 254.160 272.000,254.000 273.003,254.000 274.229 C 254.000 276.406,252.930 278.591,252.499 277.296 C 252.392 276.976,251.495 276.800,249.967 276.800 C 248.656 276.800,247.600 276.622,247.600 276.400 C 247.600 276.180,247.240 276.000,246.800 276.000 C 246.133 276.000,246.000 275.733,246.000 274.400 C 246.000 273.520,246.180 272.800,246.400 272.800 C 246.620 272.800,246.800 271.810,246.800 270.600 C 246.800 269.390,246.980 268.400,247.200 268.400 C 247.422 268.400,247.600 267.333,247.600 266.000 C 247.600 264.667,247.778 263.600,248.000 263.600 C 248.220 263.600,248.400 262.790,248.400 261.800 C 248.400 260.810,248.580 260.000,248.800 260.000 C 249.022 260.000,249.200 258.933,249.200 257.600 C 249.200 256.267,249.378 255.200,249.600 255.200 C 249.820 255.200,250.000 254.210,250.000 253.000 C 250.000 251.790,250.180 250.800,250.400 250.800 C 250.622 250.800,250.800 249.733,250.800 248.400 C 250.800 247.067,250.978 246.000,251.200 246.000 C 251.420 246.000,251.600 245.190,251.600 244.200 C 251.600 243.210,251.780 242.400,252.000 242.400 C 252.222 242.400,252.400 241.333,252.400 240.000 C 252.400 238.667,252.578 237.600,252.800 237.600 C 253.020 237.600,253.200 236.801,253.200 235.824 C 253.200 234.847,253.360 233.948,253.556 233.827 C 253.752 233.706,254.042 231.626,254.200 229.204 C 254.358 226.782,254.648 224.800,254.844 224.800 C 255.040 224.800,255.200 224.260,255.200 223.600 C 255.200 222.422,255.713 222.012,256.200 222.800 M272.980 226.037 C 273.189 226.237,274.314 226.400,275.480 226.400 C 276.646 226.400,277.600 226.580,277.600 226.800 C 277.600 227.020,278.554 227.200,279.720 227.200 C 280.886 227.200,282.011 227.363,282.220 227.561 C 282.606 227.928,283.119 228.011,290.187 228.845 C 293.335 229.217,296.867 230.400,294.829 230.400 C 294.587 230.400,294.400 231.187,294.400 232.200 C 294.400 233.190,294.220 234.000,294.000 234.000 C 293.780 234.000,293.600 234.720,293.600 235.600 L 293.600 237.200 292.000 237.200 C 291.120 237.200,290.400 237.020,290.400 236.800 C 290.400 236.580,289.410 236.400,288.200 236.400 C 286.990 236.400,286.000 236.220,286.000 236.000 C 286.000 235.780,285.100 235.600,284.000 235.600 C 282.900 235.600,282.000 235.420,282.000 235.200 C 282.000 234.980,281.021 234.800,279.824 234.800 C 278.627 234.800,277.536 234.620,277.400 234.400 C 277.264 234.180,276.353 234.000,275.376 234.000 C 274.399 234.000,273.600 233.820,273.600 233.600 C 273.600 233.378,272.533 233.200,271.200 233.200 C 269.867 233.200,268.800 233.022,268.800 232.800 C 268.800 232.580,268.530 232.400,268.200 232.400 C 267.733 232.400,267.600 231.867,267.600 230.000 C 267.600 228.667,267.778 227.600,268.000 227.600 C 268.220 227.600,268.400 227.105,268.400 226.500 C 268.399 225.361,271.902 225.006,272.980 226.037 M98.200 226.000 C 98.336 226.220,99.211 226.400,100.144 226.400 C 101.077 226.400,102.056 226.616,102.320 226.880 C 102.900 227.460,102.963 229.600,102.400 229.600 C 101.818 229.600,101.905 234.140,102.500 234.770 C 102.900 235.194,102.900 235.337,102.500 235.483 C 101.907 235.701,101.823 236.800,102.400 236.800 C 102.620 236.800,102.800 237.160,102.800 237.600 C 102.800 238.040,102.980 238.400,103.200 238.400 C 103.420 238.400,103.600 238.760,103.600 239.200 C 103.600 239.640,103.780 240.000,104.000 240.000 C 104.220 240.000,104.400 240.278,104.400 240.618 C 104.400 241.314,106.140 243.200,106.782 243.200 C 107.012 243.200,107.200 243.360,107.200 243.556 C 107.200 244.043,110.328 245.475,112.129 245.813 C 112.938 245.965,113.600 246.249,113.600 246.445 C 113.600 246.985,114.701 246.869,114.967 246.300 C 115.153 245.900,115.247 245.900,115.433 246.300 C 115.709 246.891,118.800 246.983,118.800 246.400 C 118.800 246.180,119.530 246.000,120.422 246.000 C 124.300 246.000,128.095 242.762,128.977 238.700 C 129.218 237.586,132.400 236.935,132.400 238.000 C 132.400 238.221,133.521 238.414,134.900 238.432 C 136.275 238.449,137.175 238.554,136.900 238.665 C 136.606 238.784,136.400 239.594,136.400 240.633 C 136.400 241.605,136.220 242.400,136.000 242.400 C 135.780 242.400,135.600 242.760,135.600 243.200 C 135.600 243.640,135.420 244.000,135.200 244.000 C 134.980 244.000,134.800 244.279,134.800 244.619 C 134.800 245.438,129.452 250.800,128.636 250.800 C 128.286 250.800,128.000 250.980,128.000 251.200 C 128.000 251.420,127.640 251.600,127.200 251.600 C 126.760 251.600,126.400 251.780,126.400 252.000 C 126.400 252.220,125.781 252.400,125.024 252.400 C 124.267 252.400,123.536 252.580,123.400 252.800 C 123.257 253.032,121.063 253.200,118.176 253.200 C 115.125 253.200,113.200 253.045,113.200 252.800 C 113.200 252.580,112.390 252.400,111.400 252.400 C 110.410 252.400,109.600 252.220,109.600 252.000 C 109.600 251.780,109.060 251.600,108.400 251.600 C 107.740 251.600,107.200 251.420,107.200 251.200 C 107.200 250.980,106.840 250.800,106.400 250.800 C 105.960 250.800,105.600 250.620,105.600 250.400 C 105.600 250.180,105.240 250.000,104.800 250.000 C 104.360 250.000,104.000 249.820,104.000 249.600 C 104.000 249.380,103.775 249.200,103.499 249.200 C 102.851 249.200,97.200 243.828,97.200 243.212 C 97.200 242.954,96.930 242.473,96.600 242.143 C 96.270 241.813,96.000 241.206,96.000 240.795 C 96.000 240.384,95.820 239.936,95.600 239.800 C 95.380 239.664,95.200 239.124,95.200 238.600 C 95.200 238.076,95.020 237.536,94.800 237.400 C 94.369 237.133,94.230 227.308,94.643 226.233 C 94.918 225.516,97.785 225.329,98.200 226.000 M219.600 240.400 C 219.600 240.620,220.579 240.800,221.776 240.800 C 222.973 240.800,224.064 240.980,224.200 241.200 C 224.336 241.420,225.427 241.600,226.624 241.600 C 227.821 241.600,228.800 241.780,228.800 242.000 C 228.800 242.220,229.790 242.400,231.000 242.400 C 232.210 242.400,233.200 242.580,233.200 242.800 C 233.200 243.020,234.089 243.200,235.176 243.200 C 236.263 243.200,237.264 243.380,237.400 243.600 C 237.536 243.820,237.997 244.000,238.424 244.000 C 239.251 244.000,239.532 245.347,238.800 245.800 C 238.580 245.936,238.400 246.554,238.400 247.174 C 238.400 250.287,238.056 250.800,235.974 250.800 C 234.914 250.800,233.936 250.620,233.800 250.400 C 233.664 250.180,232.573 250.000,231.376 250.000 C 230.179 250.000,229.200 249.820,229.200 249.600 C 229.200 249.380,228.221 249.200,227.024 249.200 C 225.827 249.200,224.736 249.020,224.600 248.800 C 224.464 248.580,223.384 248.400,222.200 248.400 C 221.016 248.400,219.936 248.220,219.800 248.000 C 219.664 247.780,218.942 247.600,218.195 247.600 C 216.364 247.600,214.800 246.833,214.800 245.936 C 214.800 245.531,214.980 245.200,215.200 245.200 C 215.420 245.200,215.600 244.390,215.600 243.400 C 215.600 242.410,215.780 241.600,216.000 241.600 C 216.220 241.600,216.400 241.240,216.400 240.800 C 216.400 240.133,216.667 240.000,218.000 240.000 C 218.880 240.000,219.600 240.180,219.600 240.400 M167.829 241.371 C 168.143 241.686,168.400 242.305,168.400 242.748 C 168.400 243.191,168.580 243.664,168.800 243.800 C 169.020 243.936,169.200 245.207,169.200 246.624 C 169.200 248.075,169.375 249.200,169.600 249.200 C 169.820 249.200,170.000 249.740,170.000 250.400 C 170.000 251.615,168.789 252.153,168.200 251.200 C 168.064 250.980,166.973 250.800,165.776 250.800 C 164.579 250.800,163.600 250.620,163.600 250.400 C 163.600 250.180,162.970 250.000,162.200 250.000 C 161.430 250.000,160.800 249.820,160.800 249.600 C 160.800 249.380,160.980 249.200,161.200 249.200 C 161.420 249.200,161.600 248.917,161.600 248.571 C 161.600 248.226,161.870 247.673,162.200 247.343 C 162.530 247.013,162.800 246.396,162.800 245.971 C 162.800 245.547,162.980 245.200,163.200 245.200 C 163.420 245.200,163.600 244.930,163.600 244.600 C 163.600 244.270,163.780 244.000,164.000 244.000 C 164.220 244.000,164.400 243.640,164.400 243.200 C 164.400 242.760,164.580 242.400,164.800 242.400 C 165.020 242.400,165.200 242.040,165.200 241.600 C 165.200 240.631,166.937 240.480,167.829 241.371 M266.800 248.800 C 266.800 249.022,267.867 249.200,269.200 249.200 C 270.533 249.200,271.600 249.378,271.600 249.600 C 271.600 249.820,272.590 250.000,273.800 250.000 C 275.010 250.000,276.000 250.180,276.000 250.400 C 276.000 250.620,276.979 250.800,278.176 250.800 C 279.373 250.800,280.464 250.980,280.600 251.200 C 280.736 251.420,281.647 251.600,282.624 251.600 C 283.601 251.600,284.400 251.780,284.400 252.000 C 284.400 252.220,285.120 252.400,286.000 252.400 C 287.333 252.400,287.600 252.533,287.600 253.200 C 287.600 253.640,287.420 254.000,287.200 254.000 C 286.980 254.000,286.800 254.810,286.800 255.800 C 286.800 256.790,286.620 257.600,286.400 257.600 C 286.180 257.600,286.000 257.960,286.000 258.400 C 286.000 259.111,285.733 259.200,283.600 259.200 C 282.267 259.200,281.200 259.022,281.200 258.800 C 281.200 258.580,280.401 258.400,279.424 258.400 C 278.447 258.400,277.536 258.220,277.400 258.000 C 277.264 257.780,276.173 257.600,274.976 257.600 C 273.779 257.600,272.800 257.420,272.800 257.200 C 272.800 256.980,271.821 256.800,270.624 256.800 C 269.427 256.800,268.336 256.620,268.200 256.400 C 268.064 256.180,267.051 256.000,265.948 256.000 C 264.744 256.000,263.715 255.772,263.371 255.429 C 262.710 254.768,262.618 254.000,263.200 254.000 C 263.420 254.000,263.600 253.100,263.600 252.000 C 263.600 250.900,263.780 250.000,264.000 250.000 C 264.220 250.000,264.400 249.640,264.400 249.200 C 264.400 248.578,264.667 248.400,265.600 248.400 C 266.260 248.400,266.800 248.580,266.800 248.800 M264.000 271.600 C 264.000 271.820,264.990 272.000,266.200 272.000 C 267.410 272.000,268.400 272.180,268.400 272.400 C 268.400 272.620,269.300 272.800,270.400 272.800 C 271.500 272.800,272.400 272.980,272.400 273.200 C 272.400 273.420,273.019 273.600,273.776 273.600 C 274.533 273.600,275.248 273.754,275.364 273.942 C 275.480 274.130,276.794 274.317,278.284 274.358 C 279.773 274.399,281.165 274.605,281.376 274.816 C 281.587 275.027,282.714 275.200,283.880 275.200 C 285.046 275.200,286.000 275.380,286.000 275.600 C 286.000 275.820,286.360 276.000,286.800 276.000 C 287.333 276.000,287.600 276.267,287.600 276.800 C 287.600 277.240,287.420 277.600,287.200 277.600 C 286.980 277.600,286.800 278.554,286.800 279.720 C 286.800 280.886,286.584 282.056,286.320 282.320 C 285.740 282.900,282.946 282.960,282.600 282.400 C 282.464 282.180,281.409 282.000,280.256 282.000 C 279.103 282.000,277.989 281.837,277.780 281.637 C 277.390 281.264,276.649 281.156,268.900 280.339 C 266.425 280.078,264.400 279.715,264.400 279.532 C 264.400 279.350,263.446 279.200,262.280 279.200 C 261.114 279.200,259.944 278.984,259.680 278.720 C 259.101 278.141,259.034 275.200,259.600 275.200 C 259.820 275.200,260.000 274.300,260.000 273.200 L 260.000 271.200 262.000 271.200 C 263.100 271.200,264.000 271.380,264.000 271.600 " stroke="none" fill="#040404" fill-rule="evenodd"></path><path id="path1" d="" stroke="none" fill="#080404" fill-rule="evenodd"></path><path id="path2" d="" stroke="none" fill="#080404" fill-rule="evenodd"></path><path id="path3" d="" stroke="none" fill="#080404" fill-rule="evenodd"></path><path id="path4" d="" stroke="none" fill="#080404" fill-rule="evenodd"></path></g></svg>